<svg width="564" height="546" viewBox="0 0 564 546" fill="none" xmlns="http://www.w3.org/2000/svg">
<g filter="url(#filter0_d)">
<rect x="130.101" y="92.4824" width="301.497" height="345.226" rx="17.2613" fill="white"/>
</g>
<path d="M320.477 222.04C316.001 230.658 319.349 241.278 327.955 245.757C335.065 249.463 343.831 246.691 347.528 239.568C350.606 233.644 348.304 226.342 342.386 223.262C337.425 220.678 331.311 222.612 328.731 227.579C326.549 231.78 328.182 236.959 332.376 239.146C333.515 239.74 334.918 239.297 335.511 238.157C336.104 237.017 335.662 235.611 334.523 235.018C332.604 234.018 331.857 231.647 332.854 229.727C334.25 227.039 337.559 225.994 340.242 227.392C343.882 229.286 345.298 233.776 343.404 237.422C340.892 242.264 334.933 244.147 330.1 241.629C323.771 238.334 321.309 230.526 324.601 224.188C328.863 215.984 338.96 212.792 347.155 217.058C357.681 222.541 361.777 235.531 356.302 246.073C349.31 259.535 332.743 264.773 319.299 257.771C318.161 257.178 316.757 257.622 316.165 258.762C315.573 259.902 316.016 261.308 317.155 261.9C332.875 270.088 352.249 263.963 360.425 248.221C367.085 235.398 362.103 219.597 349.298 212.928C338.827 207.477 325.925 211.556 320.477 222.04Z" fill="#373737"/>
<path d="M273.779 289.164C273.779 279.752 275.851 272.304 279.995 266.82C284.177 261.299 289.838 258.538 296.981 258.538C305.159 258.538 311.375 261.799 315.631 268.321L315.964 259.649H322.181V318.568C322.181 326.313 320.016 332.445 315.686 336.966C311.357 341.487 305.492 343.747 298.091 343.747C293.909 343.747 289.913 342.802 286.101 340.913C282.327 339.06 279.348 336.577 277.165 333.465L280.884 329.462C285.583 335.243 291.171 338.133 297.647 338.133C303.197 338.133 307.527 336.484 310.635 333.186C313.744 329.926 315.354 325.386 315.464 319.569V312.009C311.209 317.938 305.011 320.902 296.869 320.902C289.913 320.902 284.325 318.124 280.107 312.565C275.888 307.006 273.779 299.503 273.779 290.054V289.164ZM280.495 290.331C280.495 298.002 282.031 304.061 285.102 308.508C288.173 312.917 292.503 315.122 298.091 315.122C306.269 315.122 312.06 311.453 315.464 304.117V276.158C313.91 272.304 311.671 269.377 308.748 267.376C305.825 265.337 302.309 264.319 298.202 264.319C292.614 264.319 288.266 266.524 285.157 270.933C282.049 275.306 280.495 281.772 280.495 290.331Z" fill="#373737"/>
<path d="M253.574 326.081H247.868V292.664H253.574V326.081ZM247.406 283.8C247.406 282.874 247.684 282.091 248.239 281.453C248.814 280.814 249.657 280.495 250.767 280.495C251.878 280.495 252.721 280.814 253.297 281.453C253.872 282.091 254.161 282.874 254.161 283.8C254.161 284.726 253.872 285.499 253.297 286.116C252.721 286.734 251.878 287.043 250.767 287.043C249.657 287.043 248.814 286.734 248.239 286.116C247.684 285.499 247.406 284.726 247.406 283.8Z" fill="#373737"/>
<path d="M288.825 235.996C288.825 251.118 285.572 263.133 279.067 272.038C272.56 280.945 263.696 285.398 252.474 285.398C245.132 285.398 238.597 283.903 232.867 280.915C227.136 277.926 222.659 273.801 219.436 268.542V320.902H214.601V186.594H219.436V203.898C222.779 197.742 227.285 193.02 232.956 189.732C238.627 186.445 245.073 184.801 252.295 184.801C263.637 184.801 272.56 189.165 279.067 197.891C285.572 206.558 288.825 218.751 288.825 234.472V235.996ZM283.901 234.113C283.901 220.186 281.126 209.308 275.575 201.478C270.083 193.588 262.353 189.643 252.385 189.643C244.267 189.643 237.373 191.765 231.703 196.008C226.032 200.192 221.943 206.229 219.436 214.119V259.486C221.943 266.181 226.032 271.381 231.703 275.087C237.432 278.733 244.387 280.556 252.564 280.556C262.473 280.556 270.173 276.611 275.664 268.721C281.156 260.831 283.901 249.295 283.901 234.113Z" fill="#373737"/>
<path d="M292.366 236.968C292.366 252.817 288.956 265.408 282.138 274.741C275.32 284.074 266.03 288.741 254.27 288.741C246.576 288.741 239.726 287.175 233.721 284.043C227.715 280.911 223.024 276.589 219.646 271.076V325.95H214.579V185.196H219.646V203.331C223.149 196.878 227.872 191.93 233.815 188.484C239.757 185.039 246.513 183.316 254.082 183.316C265.968 183.316 275.32 187.889 282.138 197.035C288.956 206.118 292.366 218.896 292.366 235.371V236.968ZM287.206 234.995C287.206 220.4 284.297 208.999 278.479 200.793C272.724 192.525 264.623 188.39 254.176 188.39C245.668 188.39 238.444 190.614 232.501 195.062C226.559 199.446 222.273 205.773 219.646 214.042V261.586C222.273 268.602 226.559 274.052 232.501 277.936C238.506 281.757 245.793 283.667 254.364 283.667C264.748 283.667 272.817 279.533 278.573 271.265C284.327 262.995 287.206 250.906 287.206 234.995Z" fill="#373737"/>
<path d="M304.468 180.403C302.823 179.627 301.849 178.397 301.547 176.711C301.348 175.074 301.432 172.382 301.797 168.635C302.243 164.808 302.414 161.029 302.312 157.3C293.887 160.217 286.788 162.395 281.017 163.832C275.246 165.269 271.229 165.454 268.966 164.388C266.703 163.322 266.571 161.003 268.569 157.433C276.567 156.332 283.479 154.958 289.307 153.31C295.213 151.581 300.913 149.219 306.405 146.226C308.297 145.217 309.86 145.004 311.094 145.585C312.329 146.167 312.954 147.293 312.97 148.963C312.969 152.644 313.095 156.503 313.347 160.54C313.668 164.966 313.734 167.966 313.545 169.539C313.125 174.566 312 178.014 310.168 179.882C308.734 181.344 306.834 181.517 304.468 180.403Z" fill="#EB1D47"/>
<path d="M212.956 172.054C211.872 173.186 210.312 173.947 208.275 174.337C206.305 174.656 203.107 174.92 198.681 175.13C194.165 175.299 189.681 175.636 185.23 176.14C187.886 181.127 189.79 185.362 190.941 188.843C192.092 192.325 191.923 194.845 190.433 196.402C188.944 197.959 186.169 198.316 182.11 197.473C181.576 192.543 180.611 188.331 179.214 184.839C177.728 181.305 175.469 177.978 172.438 174.855C171.42 173.777 171.317 172.814 172.13 171.964C172.943 171.115 174.344 170.586 176.335 170.379C180.719 169.946 185.327 169.412 190.16 168.777C195.463 168.052 199.042 167.657 200.898 167.592C206.845 167.264 210.842 167.57 212.889 168.509C214.491 169.244 214.513 170.425 212.956 172.054Z" fill="#EB1D47"/>
<g filter="url(#filter1_ddd)">
<rect x="280.849" y="43" width="230.151" height="151.899" rx="5.75377" fill="white"/>
<g clip-path="url(#clip0)">
<path d="M335.624 86.3661C315.54 86.3629 299.26 102.643 299.261 122.727C299.26 142.812 315.54 159.094 335.624 159.093C355.707 159.094 371.991 142.814 371.988 122.727H335.624V86.3661Z" fill="#273CF6"/>
</g>
<path d="M290.055 52.206H355.648V59.1105H290.055V52.206Z" fill="#373737" fill-opacity="0.3"/>
<path d="M386.719 92.4824H486.834V101.688H386.719V92.4824Z" fill="#373737" fill-opacity="0.3"/>
<path d="M386.719 120.1H466.121V123.553H386.719V120.1Z" fill="#373737" fill-opacity="0.3"/>
<path d="M386.719 141.965H452.312V148.869H386.719V141.965Z" fill="#373737" fill-opacity="0.3"/>
<rect x="437.927" y="52.7814" width="63.2915" height="12.6583" stroke="#EB1D47" stroke-width="1.15075"/>
<rect x="437.927" y="52.7814" width="63.2915" height="12.6583" stroke="url(#paint0_linear)" stroke-opacity="0.5" stroke-width="1.15075"/>
<rect x="451.736" y="56.2337" width="34.5226" height="5.75377" fill="#EB1D47" stroke="#EB1D47" stroke-width="1.15075"/>
</g>
<g filter="url(#filter2_ddd)">
<rect x="164.623" y="308.824" width="232.452" height="73.6482" rx="5.75377" fill="white"/>
<path d="M181.848 325.15H222.197C225.223 325.15 227.699 327.626 227.699 330.653V360.914C227.699 363.94 225.223 366.416 222.197 366.416H181.848C178.822 366.416 176.346 363.94 176.346 360.914V330.652C176.346 327.626 178.822 325.15 181.848 325.15Z" fill="black"/>
<path d="M182.765 327.901H221.28C223.297 327.901 224.948 329.552 224.948 331.569V359.997C224.948 362.014 223.297 363.665 221.28 363.665H182.765C180.748 363.665 179.097 362.014 179.097 359.997V331.569C179.097 329.552 180.748 327.901 182.765 327.901Z" fill="black"/>
<path d="M224.948 343.949H219.446C219.033 343.949 218.666 344.178 218.529 344.591L216.649 350.093L212.935 338.172C212.797 337.805 212.476 337.53 212.064 337.53C211.651 337.484 211.284 337.759 211.147 338.126L207.662 347.067L206.195 344.454C206.057 344.133 205.691 343.949 205.37 343.949H198.951C198.538 343.949 198.171 344.224 198.034 344.591L196.154 350.093L192.394 338.172C192.256 337.805 191.936 337.53 191.523 337.53C191.11 337.53 190.743 337.76 190.606 338.126L187.121 347.067L185.654 344.408C185.516 344.087 185.15 343.995 184.829 343.995H179.097V345.829H184.233L186.388 349.772C186.571 350.093 186.892 350.277 187.259 350.277C187.626 350.277 187.947 350.047 188.084 349.681L191.385 341.29L195.145 353.394C195.283 353.761 195.649 354.036 196.016 354.036C196.383 354.036 196.796 353.807 196.933 353.394L199.547 345.737H204.773L206.928 349.726C207.112 350.047 207.433 350.231 207.8 350.231C208.166 350.231 208.487 350.002 208.625 349.635L211.926 341.244L215.686 353.349C215.823 353.715 216.144 353.99 216.557 353.99C216.97 353.99 217.336 353.761 217.474 353.349L220.087 345.737H224.948V343.949H224.948Z" fill="#EB1D47"/>
<rect x="241.724" y="327.236" width="112.774" height="13.809" fill="#C4C4C4"/>
<rect x="241.724" y="350.251" width="78.2513" height="9.20603" fill="#C4C4C4"/>
</g>
<g filter="url(#filter3_ddd)">
<rect x="164.623" y="400.884" width="232.452" height="73.6482" rx="5.75377" fill="white"/>
<path d="M181.848 416.06H222.197C225.223 416.06 227.699 418.536 227.699 421.562V451.823C227.699 454.849 225.223 457.325 222.197 457.325H181.848C178.822 457.325 176.346 454.849 176.346 451.823V421.562C176.346 418.536 178.822 416.06 181.848 416.06Z" fill="black"/>
<path d="M182.765 418.811H221.28C223.297 418.811 224.948 420.462 224.948 422.479V450.906C224.948 452.924 223.297 454.574 221.28 454.574H182.765C180.748 454.574 179.097 452.924 179.097 450.906V422.479C179.097 420.462 180.748 418.811 182.765 418.811Z" fill="black"/>
<path d="M224.948 434.859H219.446C219.033 434.859 218.666 435.088 218.529 435.501L216.649 441.003L212.935 429.082C212.797 428.715 212.476 428.44 212.064 428.44C211.651 428.394 211.284 428.669 211.147 429.036L207.662 437.977L206.195 435.363C206.057 435.042 205.691 434.859 205.37 434.859H198.951C198.538 434.859 198.171 435.134 198.034 435.501L196.154 441.003L192.394 429.082C192.256 428.715 191.936 428.44 191.523 428.44C191.11 428.44 190.743 428.669 190.606 429.036L187.121 437.977L185.654 435.317C185.516 434.996 185.15 434.905 184.829 434.905H179.097V436.739H184.233L186.388 440.682C186.571 441.003 186.892 441.186 187.259 441.186C187.626 441.186 187.947 440.957 188.084 440.59L191.385 432.199L195.145 444.304C195.283 444.671 195.649 444.946 196.016 444.946C196.383 444.946 196.796 444.717 196.933 444.304L199.547 436.647H204.773L206.928 440.636C207.112 440.957 207.433 441.14 207.8 441.14C208.166 441.14 208.487 440.911 208.625 440.544L211.926 432.154L215.686 444.258C215.823 444.625 216.144 444.9 216.557 444.9C216.97 444.9 217.336 444.671 217.474 444.258L220.087 436.647H224.948V434.859H224.948Z" fill="#273CF6"/>
<rect x="241.724" y="419.297" width="112.774" height="13.809" fill="#C4C4C4"/>
<rect x="241.724" y="442.312" width="78.2513" height="9.20603" fill="#C4C4C4"/>
</g>
<g filter="url(#filter4_ddd)">
<rect x="53" y="118.95" width="154.201" height="142.693" rx="5.75377" fill="white"/>
<path d="M62.206 128.156H127.799V137.362H62.206V128.156Z" fill="#373737" fill-opacity="0.3"/>
<g clip-path="url(#clip1)">
<path d="M142.594 176.737C143.659 174.447 144.724 172.174 145.852 169.742C133.453 164.528 121.356 164.782 109.783 171.666C98.6082 178.326 92.5358 188.42 90.978 201.44C93.6327 201.678 96.1443 201.885 98.6559 202.107C100.023 182.443 121.753 167.358 142.594 176.737Z" fill="#EB1D47"/>
<path d="M167.519 198.117C165.023 198.546 162.543 198.991 159.952 199.437C161.287 208.45 159.443 216.557 153.927 223.663C148.459 230.737 141.147 234.631 132.181 235.617C132.404 238.16 132.61 240.64 132.833 243.12C151.591 242.452 171.684 223.615 167.519 198.117Z" fill="#273CF6"/>
<path d="M98.5285 207.512C96.144 207.719 93.6642 207.925 91.1843 208.148C91.7566 223.869 105.475 241.546 126.14 243.231C126.363 240.688 126.586 238.192 126.792 235.776C110.642 233.073 101.263 223.71 98.5285 207.512Z" fill="#EB1D47"/>
<path d="M153.975 185.972C155.899 188.468 157.393 191.218 158.553 194.238C160.954 193.364 163.322 192.506 165.802 191.6C162.941 183.985 158.267 177.929 151.654 173.176C150.176 175.274 148.729 177.341 147.235 179.487C149.778 181.362 152.052 183.477 153.975 185.972Z" fill="black"/>
</g>
</g>
<defs>
<filter id="filter0_d" x="120.894" y="91.3317" width="319.91" height="363.638" filterUnits="userSpaceOnUse" color-interpolation-filters="sRGB">
<feFlood flood-opacity="0" result="BackgroundImageFix"/>
<feColorMatrix in="SourceAlpha" type="matrix" values="0 0 0 0 0 0 0 0 0 0 0 0 0 0 0 0 0 0 127 0"/>
<feOffset dy="8.05528"/>
<feGaussianBlur stdDeviation="4.60301"/>
<feColorMatrix type="matrix" values="0 0 0 0 0 0 0 0 0 0 0 0 0 0 0 0 0 0 0.2 0"/>
<feBlend mode="normal" in2="BackgroundImageFix" result="effect1_dropShadow"/>
<feBlend mode="normal" in="SourceGraphic" in2="effect1_dropShadow" result="shape"/>
</filter>
<filter id="filter1_ddd" x="227.915" y="0.422111" width="336.02" height="265.824" filterUnits="userSpaceOnUse" color-interpolation-filters="sRGB">
<feFlood flood-opacity="0" result="BackgroundImageFix"/>
<feColorMatrix in="SourceAlpha" type="matrix" values="0 0 0 0 0 0 0 0 0 0 0 0 0 0 0 0 0 0 127 0"/>
<feOffset dy="12.6583"/>
<feGaussianBlur stdDeviation="8.63065"/>
<feColorMatrix type="matrix" values="0 0 0 0 0 0 0 0 0 0 0 0 0 0 0 0 0 0 0.2 0"/>
<feBlend mode="normal" in2="BackgroundImageFix" result="effect1_dropShadow"/>
<feColorMatrix in="SourceAlpha" type="matrix" values="0 0 0 0 0 0 0 0 0 0 0 0 0 0 0 0 0 0 127 0"/>
<feOffset dy="10.3568"/>
<feGaussianBlur stdDeviation="26.4673"/>
<feColorMatrix type="matrix" values="0 0 0 0 0 0 0 0 0 0 0 0 0 0 0 0 0 0 0.12 0"/>
<feBlend mode="normal" in2="effect1_dropShadow" result="effect2_dropShadow"/>
<feColorMatrix in="SourceAlpha" type="matrix" values="0 0 0 0 0 0 0 0 0 0 0 0 0 0 0 0 0 0 127 0"/>
<feOffset dy="27.6181"/>
<feGaussianBlur stdDeviation="21.8643"/>
<feColorMatrix type="matrix" values="0 0 0 0 0 0 0 0 0 0 0 0 0 0 0 0 0 0 0.14 0"/>
<feBlend mode="normal" in2="effect2_dropShadow" result="effect3_dropShadow"/>
<feBlend mode="normal" in="SourceGraphic" in2="effect3_dropShadow" result="shape"/>
</filter>
<filter id="filter2_ddd" x="111.688" y="266.246" width="338.322" height="187.573" filterUnits="userSpaceOnUse" color-interpolation-filters="sRGB">
<feFlood flood-opacity="0" result="BackgroundImageFix"/>
<feColorMatrix in="SourceAlpha" type="matrix" values="0 0 0 0 0 0 0 0 0 0 0 0 0 0 0 0 0 0 127 0"/>
<feOffset dy="12.6583"/>
<feGaussianBlur stdDeviation="8.63065"/>
<feColorMatrix type="matrix" values="0 0 0 0 0 0 0 0 0 0 0 0 0 0 0 0 0 0 0.2 0"/>
<feBlend mode="normal" in2="BackgroundImageFix" result="effect1_dropShadow"/>
<feColorMatrix in="SourceAlpha" type="matrix" values="0 0 0 0 0 0 0 0 0 0 0 0 0 0 0 0 0 0 127 0"/>
<feOffset dy="10.3568"/>
<feGaussianBlur stdDeviation="26.4673"/>
<feColorMatrix type="matrix" values="0 0 0 0 0 0 0 0 0 0 0 0 0 0 0 0 0 0 0.12 0"/>
<feBlend mode="normal" in2="effect1_dropShadow" result="effect2_dropShadow"/>
<feColorMatrix in="SourceAlpha" type="matrix" values="0 0 0 0 0 0 0 0 0 0 0 0 0 0 0 0 0 0 127 0"/>
<feOffset dy="27.6181"/>
<feGaussianBlur stdDeviation="21.8643"/>
<feColorMatrix type="matrix" values="0 0 0 0 0 0 0 0 0 0 0 0 0 0 0 0 0 0 0.14 0"/>
<feBlend mode="normal" in2="effect2_dropShadow" result="effect3_dropShadow"/>
<feBlend mode="normal" in="SourceGraphic" in2="effect3_dropShadow" result="shape"/>
</filter>
<filter id="filter3_ddd" x="111.688" y="358.307" width="338.322" height="187.573" filterUnits="userSpaceOnUse" color-interpolation-filters="sRGB">
<feFlood flood-opacity="0" result="BackgroundImageFix"/>
<feColorMatrix in="SourceAlpha" type="matrix" values="0 0 0 0 0 0 0 0 0 0 0 0 0 0 0 0 0 0 127 0"/>
<feOffset dy="12.6583"/>
<feGaussianBlur stdDeviation="8.63065"/>
<feColorMatrix type="matrix" values="0 0 0 0 0 0 0 0 0 0 0 0 0 0 0 0 0 0 0.2 0"/>
<feBlend mode="normal" in2="BackgroundImageFix" result="effect1_dropShadow"/>
<feColorMatrix in="SourceAlpha" type="matrix" values="0 0 0 0 0 0 0 0 0 0 0 0 0 0 0 0 0 0 127 0"/>
<feOffset dy="10.3568"/>
<feGaussianBlur stdDeviation="26.4673"/>
<feColorMatrix type="matrix" values="0 0 0 0 0 0 0 0 0 0 0 0 0 0 0 0 0 0 0.12 0"/>
<feBlend mode="normal" in2="effect1_dropShadow" result="effect2_dropShadow"/>
<feColorMatrix in="SourceAlpha" type="matrix" values="0 0 0 0 0 0 0 0 0 0 0 0 0 0 0 0 0 0 127 0"/>
<feOffset dy="27.6181"/>
<feGaussianBlur stdDeviation="21.8643"/>
<feColorMatrix type="matrix" values="0 0 0 0 0 0 0 0 0 0 0 0 0 0 0 0 0 0 0.14 0"/>
<feBlend mode="normal" in2="effect2_dropShadow" result="effect3_dropShadow"/>
<feBlend mode="normal" in="SourceGraphic" in2="effect3_dropShadow" result="shape"/>
</filter>
<filter id="filter4_ddd" x="0.0653267" y="76.3719" width="260.07" height="256.618" filterUnits="userSpaceOnUse" color-interpolation-filters="sRGB">
<feFlood flood-opacity="0" result="BackgroundImageFix"/>
<feColorMatrix in="SourceAlpha" type="matrix" values="0 0 0 0 0 0 0 0 0 0 0 0 0 0 0 0 0 0 127 0"/>
<feOffset dy="12.6583"/>
<feGaussianBlur stdDeviation="8.63065"/>
<feColorMatrix type="matrix" values="0 0 0 0 0 0 0 0 0 0 0 0 0 0 0 0 0 0 0.2 0"/>
<feBlend mode="normal" in2="BackgroundImageFix" result="effect1_dropShadow"/>
<feColorMatrix in="SourceAlpha" type="matrix" values="0 0 0 0 0 0 0 0 0 0 0 0 0 0 0 0 0 0 127 0"/>
<feOffset dy="10.3568"/>
<feGaussianBlur stdDeviation="26.4673"/>
<feColorMatrix type="matrix" values="0 0 0 0 0 0 0 0 0 0 0 0 0 0 0 0 0 0 0.12 0"/>
<feBlend mode="normal" in2="effect1_dropShadow" result="effect2_dropShadow"/>
<feColorMatrix in="SourceAlpha" type="matrix" values="0 0 0 0 0 0 0 0 0 0 0 0 0 0 0 0 0 0 127 0"/>
<feOffset dy="27.6181"/>
<feGaussianBlur stdDeviation="21.8643"/>
<feColorMatrix type="matrix" values="0 0 0 0 0 0 0 0 0 0 0 0 0 0 0 0 0 0 0.14 0"/>
<feBlend mode="normal" in2="effect2_dropShadow" result="effect3_dropShadow"/>
<feBlend mode="normal" in="SourceGraphic" in2="effect3_dropShadow" result="shape"/>
</filter>
<linearGradient id="paint0_linear" x1="469.573" y1="52.206" x2="469.573" y2="66.0151" gradientUnits="userSpaceOnUse">
<stop stop-color="white"/>
<stop offset="1" stop-color="white" stop-opacity="0"/>
</linearGradient>
<clipPath id="clip0">
<rect width="80.5528" height="80.5528" fill="white" transform="translate(299.261 78.6734)"/>
</clipPath>
<clipPath id="clip1">
<rect width="77.1005" height="77.1005" fill="white" transform="translate(90.9749 166.131)"/>
</clipPath>
</defs>
</svg>
