<svg width="555" height="363" viewBox="0 0 555 363" fill="none" xmlns="http://www.w3.org/2000/svg">
<g clip-path="url(#clip0)">
<path d="M529.065 321.654C529.065 326.855 524.834 331.085 519.634 331.085H488.197C482.997 331.085 478.766 326.855 478.766 321.654V280.787C478.766 275.586 482.997 271.356 488.197 271.356H519.634C524.834 271.356 529.065 275.586 529.065 280.787V321.654ZM519.634 338.944V344.762C519.634 347.87 518.645 348.153 513.372 349.071C513.262 349.084 513.12 349.108 512.877 349.15C511.723 349.347 508.209 349.947 503.915 349.947C501.854 349.947 498.592 349.804 494.761 349.122C494.653 349.102 494.573 349.088 494.507 349.079C489.072 348.014 488.197 347.626 488.197 344.762V338.944C488.197 336.984 488.027 334.753 487.082 332.879H520.791C519.795 334.831 519.634 337.123 519.634 338.944ZM488.197 263.496V257.679C488.197 254.814 489.072 254.427 494.507 253.362C494.573 253.353 494.653 253.338 494.761 253.319C498.592 252.637 501.854 252.494 503.915 252.494C508.209 252.494 511.723 253.094 512.877 253.291C513.12 253.333 513.262 253.357 513.372 253.37C518.64 254.286 519.634 254.563 519.634 257.679V263.496C519.634 265.318 519.795 267.61 520.791 269.561H487.082C488.027 267.688 488.197 265.456 488.197 263.496ZM531.653 293.361C531.959 293.361 532.208 293.112 532.208 292.806V284.486C532.208 284.179 531.959 283.93 531.653 283.93H530.637V280.787C530.637 276.081 527.638 272.053 523.461 270.488C521.812 269.032 521.206 266.646 521.206 263.496V257.679C521.206 253.125 518.685 252.699 513.577 251.81C513.355 251.81 509.246 250.922 503.915 250.922C498.585 250.922 494.365 251.81 494.254 251.81C489.146 252.81 486.625 253.348 486.625 257.679V263.496C486.625 266.633 486.103 269.01 484.423 270.468C480.219 272.019 477.194 276.061 477.194 280.787V321.654C477.194 326.38 480.219 330.422 484.423 331.973C486.103 333.43 486.625 335.808 486.625 338.944V344.762C486.625 349.093 489.146 349.631 494.254 350.631C494.365 350.631 498.585 351.519 503.915 351.519C509.246 351.519 513.355 350.631 513.577 350.631C518.685 349.742 521.206 349.315 521.206 344.762V338.944C521.206 335.795 521.812 333.409 523.461 331.953C527.638 330.388 530.637 326.36 530.637 321.654V315.367H531.423C531.856 315.367 532.208 315.015 532.208 314.581V303.578C532.208 303.144 531.856 302.792 531.423 302.792H530.637V293.361H531.653ZM526.707 321.654C526.707 325.555 523.534 328.727 519.634 328.727H488.197C484.297 328.727 481.124 325.555 481.124 321.654V280.787C481.124 276.886 484.297 273.713 488.197 273.713H519.634C523.534 273.713 526.707 276.886 526.707 280.787V321.654ZM519.634 272.927H488.197C483.857 272.927 480.338 276.446 480.338 280.787V321.654C480.338 325.995 483.857 329.513 488.197 329.513H519.634C523.974 329.513 527.493 325.995 527.493 321.654V280.787C527.493 276.446 523.974 272.927 519.634 272.927Z" fill="#EB1D47"/>
</g>
<g clip-path="url(#clip1)">
<path d="M501.272 168.829V143.751C501.272 137.621 496.256 132.606 490.126 132.606H423.252C417.122 132.606 412.106 137.621 412.106 143.751V154.897C411.34 154.897 410.713 155.524 410.713 156.29V159.077C410.713 159.843 411.34 160.47 412.106 160.47V168.829C411.34 168.829 410.713 169.456 410.713 170.223V178.582C410.713 179.348 411.34 179.975 412.106 179.975V182.761C411.34 182.761 410.713 183.388 410.713 184.155V192.514C410.713 193.28 411.34 193.907 412.106 193.907V299.792C412.106 305.922 417.122 310.937 423.252 310.937H490.126C496.256 310.937 501.272 305.922 501.272 299.792V182.761C502.038 182.761 502.665 182.135 502.665 181.368V170.223C502.665 169.456 502.038 168.829 501.272 168.829ZM498.485 299.792C498.485 304.4 494.735 308.151 490.126 308.151H423.252C418.643 308.151 414.893 304.4 414.893 299.792V143.751C414.893 139.143 418.643 135.392 423.252 135.392H490.126C494.735 135.392 498.485 139.143 498.485 143.751V299.792Z" fill="#EB1D47"/>
<path d="M490.154 153.504H423.224C420.162 153.504 417.679 155.987 417.679 159.049V285.887C417.679 288.95 420.162 291.432 423.224 291.432H490.154C493.216 291.432 495.699 288.95 495.699 285.887V159.049C495.699 155.987 493.216 153.504 490.154 153.504ZM494.306 285.887C494.306 288.176 492.443 290.039 490.154 290.039H423.224C420.935 290.039 419.072 288.176 419.072 285.887V159.049C419.072 156.76 420.935 154.897 423.224 154.897H490.154C492.443 154.897 494.306 156.76 494.306 159.049V285.887Z" fill="#EB1D47"/>
<path d="M480.981 313.224V289.789H502.987V313.224H480.981Z" fill="white"/>
<path d="M501.558 273.785H494.127H491.269V289.789H501.558V273.785Z" fill="white"/>
<path d="M501.272 271.213H494.127V272.927H501.272V271.213Z" fill="white"/>
<path d="M494.984 253.208L493.841 253.494V269.553H501.558V252.636H499.271L496.128 253.208H494.984Z" fill="white"/>
</g>
<g clip-path="url(#clip2)">
<path d="M373.329 325.703H226.252C224.24 325.703 222.606 324.07 222.606 322.058C222.606 320.045 224.24 318.412 226.252 318.412H249.156L253.895 279.863H137.231C126.801 279.863 118.316 271.376 118.316 260.946V56.1626C118.316 45.7325 126.801 37.2473 137.231 37.2473H462.35C472.782 37.2473 481.267 45.7325 481.267 56.1626V260.946C481.267 271.378 472.782 279.863 462.35 279.863H345.688L350.425 318.412H373.329C375.341 318.412 376.975 320.045 376.975 322.058C376.975 324.07 375.343 325.703 373.329 325.703ZM256.503 318.412H343.08L338.342 279.863H261.241L256.503 318.412ZM341.568 272.572H462.351C468.762 272.572 473.977 267.357 473.977 260.946V240.274H125.607V260.946C125.607 267.357 130.821 272.572 137.231 272.572H341.568ZM125.607 232.982H473.975V56.1626C473.975 49.7518 468.76 44.5386 462.35 44.5386H137.231C130.821 44.5386 125.607 49.7518 125.607 56.1626V232.982Z" fill="#EB1D47"/>
<rect x="472.693" y="154.897" width="10.2884" height="109.171" fill="white"/>
<rect x="418.965" y="268.641" width="56.586" height="14.861" fill="white"/>
<ellipse cx="474.98" cy="268.069" rx="7.43048" ry="6.85891" fill="white"/>
<rect x="414.964" y="271.498" width="2.85788" height="9.71679" fill="white"/>
<rect x="418.965" y="228.059" width="55.4428" height="17.7188" fill="white"/>
<rect x="473.265" y="135.464" width="9.14521" height="18.2904" fill="white"/>
<path d="M478.694 310.937V308.079H480.409V310.937H478.694Z" fill="white"/>
<path d="M478.694 291.504V289.789H480.409V291.504H478.694Z" fill="white"/>
<path d="M414.66 240.527V232.973H417.84V240.527H414.66Z" fill="white"/>
</g>
<g clip-path="url(#clip3)">
<path d="M196.41 149.355V145.667C196.41 144.653 195.58 143.823 194.566 143.823V129.069C194.566 120.954 187.926 114.315 179.812 114.315H54.4046C46.29 114.315 39.6508 120.954 39.6508 129.069V335.622C39.6508 343.737 46.29 350.376 54.4046 350.376H179.812C187.926 350.376 194.566 343.737 194.566 335.622V180.707C195.58 180.707 196.41 179.877 196.41 178.863V160.421C196.41 159.406 195.58 158.577 194.566 158.577V151.2C195.58 151.2 196.41 150.37 196.41 149.355ZM190.877 335.622C190.877 341.723 185.913 346.687 179.812 346.687H54.4046C48.3039 346.687 43.3392 341.723 43.3392 335.622V129.069C43.3392 122.968 48.3039 118.004 54.4046 118.004H179.812C185.913 118.004 190.877 122.968 190.877 129.069V335.622Z" fill="#EB1D47"/>
<path d="M179.812 136.446H54.4046C50.3307 136.446 47.0277 139.749 47.0277 143.823V317.18C47.0277 321.254 50.3307 324.557 54.4046 324.557H179.812C183.886 324.557 187.189 321.254 187.189 317.18V143.823C187.189 139.749 183.886 136.446 179.812 136.446ZM185.345 317.18C185.345 320.23 182.862 322.713 179.812 322.713H54.4046C51.3543 322.713 48.8719 320.23 48.8719 317.18V143.823C48.8719 140.772 51.3543 138.29 54.4046 138.29H179.812C182.862 138.29 185.345 140.772 185.345 143.823V317.18Z" fill="#EB1D47"/>
<rect x="92.0237" y="144.609" width="93.7384" height="173.759" fill="white"/>
<rect x="186.905" y="137.178" width="4.00103" height="188.048" fill="white"/>
<rect x="105.741" y="138.321" width="36.5808" height="90.8805" fill="white"/>
<rect x="117.173" y="117.745" width="9.14521" height="18.862" fill="white"/>
</g>
<defs>
<clipPath id="clip0">
<rect width="100.597" height="100.597" fill="white" transform="translate(454.402 250.922)"/>
</clipPath>
<clipPath id="clip1">
<rect width="178.332" height="178.332" fill="white" transform="translate(367.523 132.606)"/>
</clipPath>
<clipPath id="clip2">
<rect width="362.951" height="362.951" fill="white" transform="translate(118.316)"/>
</clipPath>
<clipPath id="clip3">
<rect width="236.061" height="236.061" fill="white" transform="translate(0 114.315)"/>
</clipPath>
</defs>
</svg>
