<svg width="46" height="45" viewBox="0 0 46 45" fill="none" xmlns="http://www.w3.org/2000/svg">
<path d="M34.3706 20.9674C34.1377 20.4528 33.6259 20.125 33.0624 20.125H27.3124V1.4375C27.3124 0.644 26.6684 0 25.8749 0H20.1249C19.3314 0 18.6874 0.644 18.6874 1.4375V20.125H12.9374C12.3739 20.125 11.8622 20.4556 11.6293 20.9674C11.3936 21.482 11.4856 22.0829 11.8564 22.5084L21.9189 34.0084C22.1921 34.3218 22.5859 34.5 22.9999 34.5C23.4139 34.5 23.8078 34.3189 24.0809 34.0084L34.1434 22.5084C34.5172 22.0857 34.6034 21.482 34.3706 20.9674Z" fill="white" fill-opacity="0.2"/>
<path d="M38.8125 31.625V40.25H7.1875V31.625H1.4375V43.125C1.4375 44.7149 2.7255 46 4.3125 46H41.6875C43.2774 46 44.5625 44.7149 44.5625 43.125V31.625H38.8125Z" fill="white" fill-opacity="0.2"/>
</svg>
