<svg width="84" height="70" viewBox="0 0 84 70" fill="none" xmlns="http://www.w3.org/2000/svg">
<g clip-path="url(#clip0)">
<path d="M40.9366 69.114C60.0219 69.114 75.4936 53.6423 75.4936 34.557C75.4936 15.4717 60.0219 0 40.9366 0C21.8513 0 6.37964 15.4717 6.37964 34.557C6.37964 53.6423 21.8513 69.114 40.9366 69.114Z" fill="#FCFCFC" fill-opacity="0.2"/>
<path d="M79.2152 53.165H52.633C49.9904 53.165 47.8481 55.3073 47.8481 57.9498C47.8481 60.5924 49.9904 62.7347 52.633 62.7347H79.2152C81.8578 62.7347 84 60.5924 84 57.9498C84 55.3073 81.8578 53.165 79.2152 53.165Z" fill="#FCFCFC" fill-opacity="0.09"/>
<path d="M31.3671 39.3418H4.78481C2.14223 39.3418 0 41.484 0 44.1266C0 46.7692 2.14223 48.9114 4.78481 48.9114H31.3671C34.0097 48.9114 36.1519 46.7692 36.1519 44.1266C36.1519 41.484 34.0097 39.3418 31.3671 39.3418Z" fill="#FCFCFC" fill-opacity="0.09"/>
<path d="M45.1898 10.6328H6.91127C4.2687 10.6328 2.12646 12.775 2.12646 15.4176C2.12646 18.0602 4.2687 20.2024 6.91127 20.2024H45.1898C47.8323 20.2024 49.9746 18.0602 49.9746 15.4176C49.9746 12.775 47.8323 10.6328 45.1898 10.6328Z" fill="#FCFCFC" fill-opacity="0.09"/>
<path d="M41.9999 62.7347C44.6425 62.7347 46.7847 60.5924 46.7847 57.9499C46.7847 55.3073 44.6425 53.165 41.9999 53.165C39.3573 53.165 37.2151 55.3073 37.2151 57.9499C37.2151 60.5924 39.3573 62.7347 41.9999 62.7347Z" fill="#FCFCFC" fill-opacity="0.2"/>
<path d="M77.0885 26.582H50.5062C47.8637 26.582 45.7214 28.7243 45.7214 31.3668C45.7214 34.0094 47.8637 36.1517 50.5062 36.1517H77.0885C79.7311 36.1517 81.8733 34.0094 81.8733 31.3668C81.8733 28.7243 79.7311 26.582 77.0885 26.582Z" fill="#FCFCFC" fill-opacity="0.09"/>
<g filter="url(#filter0_ddd)">
<path d="M45.0105 49.958C45.0011 49.9548 44.1745 49.7012 44.1745 49.7012C43.8725 49.6084 43.5468 49.6323 43.2614 49.7677L41.58 50.5673L39.8986 49.7677C39.6133 49.6323 39.2875 49.6086 38.9856 49.7012C38.9856 49.7012 38.1592 49.955 38.1495 49.958C36.7085 50.4382 35.7405 51.7812 35.7405 53.2999V57.0102C35.7405 57.7079 36.3059 58.2733 37.0036 58.2733H46.1563C46.854 58.2733 47.4194 57.7079 47.4194 57.0102V53.2999C47.4194 51.7812 46.4514 50.4382 45.0105 49.958Z" fill="white"/>
<path d="M37.6128 44.9673C37.6128 47.155 39.3925 48.9347 41.5801 48.9347C43.7677 48.9347 45.5474 47.155 45.5474 44.9673C45.5474 42.7797 43.7677 41 41.5801 41C39.3925 41 37.6128 42.7797 37.6128 44.9673Z" fill="white"/>
<path d="M37.0038 22.5439H46.1564C46.8541 22.5439 47.4196 21.9785 47.4196 21.2808V17.5705C47.4196 16.0518 46.4516 14.7088 45.0105 14.2286C45.0011 14.2254 44.1745 13.9718 44.1745 13.9718C43.8725 13.8789 43.5468 13.9027 43.2615 14.0383L41.58 14.8377L39.8986 14.0382C39.6133 13.9027 39.2875 13.8789 38.9856 13.9716C38.9856 13.9716 38.1592 14.2254 38.1495 14.2284C36.7085 14.7087 35.7405 16.0516 35.7405 17.5703V21.2806C35.7407 21.9785 36.3061 22.5439 37.0038 22.5439Z" fill="white"/>
<path d="M41.5801 13.0479C43.7677 13.0479 45.5474 11.2682 45.5474 9.08058C45.5474 6.89298 43.7677 5.11328 41.5801 5.11328C39.3925 5.11328 37.6128 6.89298 37.6128 9.08058C37.6128 11.2682 39.3925 13.0479 41.5801 13.0479Z" fill="white"/>
<path d="M25.7674 49.958C25.7579 49.9548 24.9311 49.701 24.9311 49.701C24.6292 49.6086 24.3034 49.6321 24.0181 49.7679L22.3369 50.5673L20.6554 49.7678C20.3701 49.6323 20.0445 49.6086 19.7424 49.7012C19.7424 49.7012 18.916 49.955 18.9063 49.958C17.4653 50.4382 16.4973 51.7812 16.4973 53.2999V57.0102C16.4973 57.7079 17.0627 58.2734 17.7604 58.2734H26.9129C27.6106 58.2734 28.176 57.7079 28.176 57.0102V53.2999C28.1762 51.7812 27.2081 50.4381 25.7674 49.958Z" fill="white"/>
<path d="M22.3369 48.9347C24.5246 48.9347 26.3043 47.155 26.3043 44.9673C26.3043 42.7797 24.5246 41 22.3369 41C20.1493 41 18.3696 42.7797 18.3696 44.9673C18.3696 47.155 20.1493 48.9347 22.3369 48.9347Z" fill="white"/>
<path d="M64.2538 49.958C64.2443 49.9548 63.4177 49.7012 63.4177 49.7012C63.1156 49.6084 62.79 49.6323 62.5047 49.7677L60.8232 50.5673L59.142 49.7679C58.8567 49.6323 58.5309 49.6088 58.229 49.701C58.229 49.701 57.4024 49.955 57.3927 49.958C55.9519 50.4381 54.9839 51.7812 54.9839 53.2999V57.0102C54.9839 57.7079 55.5493 58.2733 56.247 58.2733H65.3995C66.0972 58.2733 66.6626 57.7079 66.6626 57.0102V53.2999C66.6626 51.7812 65.6946 50.4382 64.2538 49.958Z" fill="white"/>
<path d="M56.856 44.9673C56.856 47.155 58.6357 48.9347 60.8233 48.9347C63.0109 48.9347 64.7906 47.155 64.7906 44.9673C64.7906 42.7797 63.0109 41 60.8233 41C58.6357 41 56.856 42.7797 56.856 44.9673Z" fill="white"/>
<path d="M22.3367 37.7024C23.1839 37.7024 23.8705 37.0156 23.8705 36.1686V33.0986H40.046V36.1684C40.046 37.0156 40.7328 37.7022 41.5798 37.7022C42.4267 37.7022 43.1135 37.0154 43.1135 36.1684V33.0984H59.289V36.1684C59.289 37.0156 59.9758 37.7022 60.8228 37.7022C61.6699 37.7022 62.3565 37.0154 62.3565 36.1684V31.5646C62.3565 30.7175 61.6698 30.0309 60.8228 30.0309H43.1133V25.7926C43.1133 24.9454 42.4266 24.2588 41.5796 24.2588C40.7326 24.2588 40.0458 24.9456 40.0458 25.7926V30.0309H22.3367C21.4896 30.0309 20.803 30.7177 20.803 31.5646V36.1684C20.803 37.0156 21.4896 37.7024 22.3367 37.7024Z" fill="white"/>
</g>
</g>
<defs>
<filter id="filter0_ddd" x="-32.4141" y="-34.2285" width="147.988" height="158.426" filterUnits="userSpaceOnUse" color-interpolation-filters="sRGB">
<feFlood flood-opacity="0" result="BackgroundImageFix"/>
<feColorMatrix in="SourceAlpha" type="matrix" values="0 0 0 0 0 0 0 0 0 0 0 0 0 0 0 0 0 0 127 0"/>
<feOffset dy="11.6962"/>
<feGaussianBlur stdDeviation="7.97468"/>
<feColorMatrix type="matrix" values="0 0 0 0 1 0 0 0 0 1 0 0 0 0 1 0 0 0 0.2 0"/>
<feBlend mode="normal" in2="BackgroundImageFix" result="effect1_dropShadow"/>
<feColorMatrix in="SourceAlpha" type="matrix" values="0 0 0 0 0 0 0 0 0 0 0 0 0 0 0 0 0 0 127 0"/>
<feOffset dy="9.56962"/>
<feGaussianBlur stdDeviation="24.4557"/>
<feColorMatrix type="matrix" values="0 0 0 0 1 0 0 0 0 1 0 0 0 0 1 0 0 0 0.12 0"/>
<feBlend mode="normal" in2="effect1_dropShadow" result="effect2_dropShadow"/>
<feColorMatrix in="SourceAlpha" type="matrix" values="0 0 0 0 0 0 0 0 0 0 0 0 0 0 0 0 0 0 127 0"/>
<feOffset dy="25.519"/>
<feGaussianBlur stdDeviation="20.2025"/>
<feColorMatrix type="matrix" values="0 0 0 0 1 0 0 0 0 1 0 0 0 0 1 0 0 0 0.14 0"/>
<feBlend mode="normal" in2="effect2_dropShadow" result="effect3_dropShadow"/>
<feBlend mode="normal" in="SourceGraphic" in2="effect3_dropShadow" result="shape"/>
</filter>
<clipPath id="clip0">
<rect width="84" height="69.11" fill="white"/>
</clipPath>
</defs>
</svg>
