<svg width="67" height="67" viewBox="0 0 67 67" fill="none" xmlns="http://www.w3.org/2000/svg">
<rect x="1" y="1" width="65" height="65" rx="32.5" stroke="white" stroke-width="2"/>
<g clip-path="url(#clip0)">
<path d="M45.5937 39.6229C46.0731 39.1597 46.0731 38.3888 45.5937 37.9094C45.1305 37.4462 44.3596 37.4462 43.8975 37.9094L35.2091 46.5978V17.9272C35.208 17.2589 34.6768 16.7277 34.0084 16.7277C33.3401 16.7277 32.7916 17.2589 32.7916 17.9272V46.5978L24.1194 37.9094C23.64 37.4462 22.868 37.4462 22.4059 37.9094C21.9265 38.3888 21.9265 39.1608 22.4059 39.6229L33.1511 50.3681C33.6143 50.8475 34.3853 50.8475 34.8474 50.3681L45.5937 39.6229Z" fill="white"/>
</g>
<defs>
<clipPath id="clip0">
<rect width="34" height="34" fill="white" transform="translate(17 17)"/>
</clipPath>
</defs>
</svg>
