<svg width="84" height="70" viewBox="0 0 84 70" fill="none" xmlns="http://www.w3.org/2000/svg">
<g clip-path="url(#clip0)">
<path d="M40.9366 69.114C60.0219 69.114 75.4936 53.6423 75.4936 34.557C75.4936 15.4717 60.0219 0 40.9366 0C21.8513 0 6.37964 15.4717 6.37964 34.557C6.37964 53.6423 21.8513 69.114 40.9366 69.114Z" fill="#FCFCFC" fill-opacity="0.2"/>
<path d="M79.2152 53.165H52.633C49.9904 53.165 47.8481 55.3073 47.8481 57.9498C47.8481 60.5924 49.9904 62.7347 52.633 62.7347H79.2152C81.8578 62.7347 84 60.5924 84 57.9498C84 55.3073 81.8578 53.165 79.2152 53.165Z" fill="#FCFCFC" fill-opacity="0.09"/>
<path d="M31.3671 39.3418H4.78481C2.14223 39.3418 0 41.484 0 44.1266C0 46.7692 2.14223 48.9114 4.78481 48.9114H31.3671C34.0097 48.9114 36.1519 46.7692 36.1519 44.1266C36.1519 41.484 34.0097 39.3418 31.3671 39.3418Z" fill="#FCFCFC" fill-opacity="0.09"/>
<path d="M45.1899 10.6328H6.9114C4.26882 10.6328 2.12659 12.775 2.12659 15.4176C2.12659 18.0602 4.26882 20.2024 6.9114 20.2024H45.1899C47.8325 20.2024 49.9747 18.0602 49.9747 15.4176C49.9747 12.775 47.8325 10.6328 45.1899 10.6328Z" fill="#FCFCFC" fill-opacity="0.09"/>
<path d="M42 62.7347C44.6426 62.7347 46.7848 60.5924 46.7848 57.9498C46.7848 55.3073 44.6426 53.165 42 53.165C39.3574 53.165 37.2152 55.3073 37.2152 57.9498C37.2152 60.5924 39.3574 62.7347 42 62.7347Z" fill="#FCFCFC" fill-opacity="0.2"/>
<path d="M77.0886 26.582H50.5064C47.8638 26.582 45.7216 28.7243 45.7216 31.3668C45.7216 34.0094 47.8638 36.1516 50.5064 36.1516H77.0886C79.7312 36.1516 81.8735 34.0094 81.8735 31.3668C81.8735 28.7243 79.7312 26.582 77.0886 26.582Z" fill="#FCFCFC" fill-opacity="0.09"/>
<g filter="url(#filter0_ddd)">
<path d="M66.274 15.5306H56.528V8.44264C56.528 7.95334 56.1313 7.55664 55.642 7.55664H25.518C25.0287 7.55664 24.632 7.95334 24.632 8.44264V20.8466H14.886C14.3967 20.8466 14 21.2433 14 21.7326V58.0586C14 58.5479 14.3967 58.9446 14.886 58.9446C15.3753 58.9446 15.772 58.5479 15.772 58.0586V22.6186H24.632V58.9446C24.632 59.4339 25.0287 59.8306 25.518 59.8306H55.642C56.1313 59.8306 56.528 59.4339 56.528 58.9446V17.3026H65.388V58.0586C65.388 58.5479 65.785 58.9446 66.274 58.9446C66.763 58.9446 67.16 58.5479 67.16 58.0586V16.4166C67.16 15.9273 66.763 15.5306 66.274 15.5306ZM39.694 58.0586H36.15V50.0846H39.694V58.0586ZM45.01 58.0586H41.466V50.0846H45.01V58.0586ZM54.756 58.0586H46.782V49.1986C46.782 48.7093 46.3853 48.3126 45.896 48.3126H35.264C34.7747 48.3126 34.378 48.7093 34.378 49.1986V58.0586H26.404V9.32864H54.756V58.0586Z" fill="white"/>
<path d="M34.378 11.1006H29.062C28.5727 11.1006 28.176 11.4973 28.176 11.9866V17.3026C28.176 17.7919 28.5727 18.1886 29.062 18.1886H34.378C34.8673 18.1886 35.264 17.7919 35.264 17.3026V11.9866C35.264 11.4973 34.8673 11.1006 34.378 11.1006ZM33.492 16.4166H29.948V12.8726H33.492V16.4166Z" fill="white"/>
<path d="M43.238 11.1006H37.922C37.4327 11.1006 37.036 11.4973 37.036 11.9866V17.3026C37.036 17.7919 37.4327 18.1886 37.922 18.1886H43.238C43.7273 18.1886 44.124 17.7919 44.124 17.3026V11.9866C44.124 11.4973 43.7273 11.1006 43.238 11.1006ZM42.352 16.4166H38.808V12.8726H42.352V16.4166Z" fill="white"/>
<path d="M52.098 11.1006H46.782C46.2927 11.1006 45.896 11.4973 45.896 11.9866V17.3026C45.896 17.7919 46.2927 18.1886 46.782 18.1886H52.098C52.5873 18.1886 52.984 17.7919 52.984 17.3026V11.9866C52.984 11.4973 52.5873 11.1006 52.098 11.1006ZM51.212 16.4166H47.668V12.8726H51.212V16.4166Z" fill="white"/>
<path d="M34.378 19.96H29.062C28.5727 19.96 28.176 20.3567 28.176 20.846V26.162C28.176 26.6513 28.5727 27.048 29.062 27.048H34.378C34.8673 27.048 35.264 26.6513 35.264 26.162V20.846C35.264 20.3567 34.8673 19.96 34.378 19.96ZM33.492 25.276H29.948V21.732H33.492V25.276Z" fill="white"/>
<path d="M43.238 19.96H37.922C37.4327 19.96 37.036 20.3567 37.036 20.846V26.162C37.036 26.6513 37.4327 27.048 37.922 27.048H43.238C43.7273 27.048 44.124 26.6513 44.124 26.162V20.846C44.124 20.3567 43.7273 19.96 43.238 19.96ZM42.352 25.276H38.808V21.732H42.352V25.276Z" fill="white"/>
<path d="M52.098 19.96H46.782C46.2927 19.96 45.896 20.3567 45.896 20.846V26.162C45.896 26.6513 46.2927 27.048 46.782 27.048H52.098C52.5873 27.048 52.984 26.6513 52.984 26.162V20.846C52.984 20.3567 52.5873 19.96 52.098 19.96ZM51.212 25.276H47.668V21.732H51.212V25.276Z" fill="white"/>
<path d="M34.378 28.8203H29.062C28.5727 28.8203 28.176 29.217 28.176 29.7063V35.0223C28.176 35.5116 28.5727 35.9083 29.062 35.9083H34.378C34.8673 35.9083 35.264 35.5116 35.264 35.0223V29.7063C35.264 29.217 34.8673 28.8203 34.378 28.8203ZM33.492 34.1363H29.948V30.5923H33.492V34.1363Z" fill="white"/>
<path d="M43.238 28.8203H37.922C37.4327 28.8203 37.036 29.217 37.036 29.7063V35.0223C37.036 35.5116 37.4327 35.9083 37.922 35.9083H43.238C43.7273 35.9083 44.124 35.5116 44.124 35.0223V29.7063C44.124 29.217 43.7273 28.8203 43.238 28.8203ZM42.352 34.1363H38.808V30.5923H42.352V34.1363Z" fill="white"/>
<path d="M52.098 28.8203H46.782C46.2927 28.8203 45.896 29.217 45.896 29.7063V35.0223C45.896 35.5116 46.2927 35.9083 46.782 35.9083H52.098C52.5873 35.9083 52.984 35.5116 52.984 35.0223V29.7063C52.984 29.217 52.5873 28.8203 52.098 28.8203ZM51.212 34.1363H47.668V30.5923H51.212V34.1363Z" fill="white"/>
<path d="M34.378 37.6807H29.062C28.5727 37.6807 28.176 38.0774 28.176 38.5667V43.8827C28.176 44.372 28.5727 44.7687 29.062 44.7687H34.378C34.8673 44.7687 35.264 44.372 35.264 43.8827V38.5667C35.264 38.0774 34.8673 37.6807 34.378 37.6807ZM33.492 42.9967H29.948V39.4527H33.492V42.9967Z" fill="white"/>
<path d="M43.238 37.6807H37.922C37.4327 37.6807 37.036 38.0774 37.036 38.5667V43.8827C37.036 44.372 37.4327 44.7687 37.922 44.7687H43.238C43.7273 44.7687 44.124 44.372 44.124 43.8827V38.5667C44.124 38.0774 43.7273 37.6807 43.238 37.6807ZM42.352 42.9967H38.808V39.4527H42.352V42.9967Z" fill="white"/>
<path d="M52.098 37.6807H46.782C46.2927 37.6807 45.896 38.0774 45.896 38.5667V43.8827C45.896 44.372 46.2927 44.7687 46.782 44.7687H52.098C52.5873 44.7687 52.984 44.372 52.984 43.8827V38.5667C52.984 38.0774 52.5873 37.6807 52.098 37.6807ZM51.212 42.9967H47.668V39.4527H51.212V42.9967Z" fill="white"/>
<path d="M19.3159 24.3906H18.4299C17.9407 24.3906 17.5439 24.7873 17.5439 25.2766V26.1626C17.5439 26.6519 17.9407 27.0486 18.4299 27.0486H19.3159C19.8052 27.0486 20.2019 26.6519 20.2019 26.1626V25.2766C20.2019 24.7873 19.8052 24.3906 19.3159 24.3906Z" fill="white"/>
<path d="M22.86 24.3906H21.974C21.4847 24.3906 21.088 24.7873 21.088 25.2766V26.1626C21.088 26.6519 21.4847 27.0486 21.974 27.0486H22.86C23.3493 27.0486 23.746 26.6519 23.746 26.1626V25.2766C23.746 24.7873 23.3493 24.3906 22.86 24.3906Z" fill="white"/>
<path d="M19.3159 27.9346H18.4299C17.9407 27.9346 17.5439 28.3313 17.5439 28.8206V29.7066C17.5439 30.1959 17.9407 30.5926 18.4299 30.5926H19.3159C19.8052 30.5926 20.2019 30.1959 20.2019 29.7066V28.8206C20.2019 28.3313 19.8052 27.9346 19.3159 27.9346Z" fill="white"/>
<path d="M22.86 27.9346H21.974C21.4847 27.9346 21.088 28.3313 21.088 28.8206V29.7066C21.088 30.1959 21.4847 30.5926 21.974 30.5926H22.86C23.3493 30.5926 23.746 30.1959 23.746 29.7066V28.8206C23.746 28.3313 23.3493 27.9346 22.86 27.9346Z" fill="white"/>
<path d="M19.3159 31.4785H18.4299C17.9407 31.4785 17.5439 31.8752 17.5439 32.3645V33.2505C17.5439 33.7398 17.9407 34.1365 18.4299 34.1365H19.3159C19.8052 34.1365 20.2019 33.7398 20.2019 33.2505V32.3645C20.2019 31.8752 19.8052 31.4785 19.3159 31.4785Z" fill="white"/>
<path d="M22.86 31.4785H21.974C21.4847 31.4785 21.088 31.8752 21.088 32.3645V33.2505C21.088 33.7398 21.4847 34.1365 21.974 34.1365H22.86C23.3493 34.1365 23.746 33.7398 23.746 33.2505V32.3645C23.746 31.8752 23.3493 31.4785 22.86 31.4785Z" fill="white"/>
<path d="M19.3159 35.0225H18.4299C17.9407 35.0225 17.5439 35.4192 17.5439 35.9085V36.7945C17.5439 37.2838 17.9407 37.6805 18.4299 37.6805H19.3159C19.8052 37.6805 20.2019 37.2838 20.2019 36.7945V35.9085C20.2019 35.4192 19.8052 35.0225 19.3159 35.0225Z" fill="white"/>
<path d="M22.86 35.0225H21.974C21.4847 35.0225 21.088 35.4192 21.088 35.9085V36.7945C21.088 37.2838 21.4847 37.6805 21.974 37.6805H22.86C23.3493 37.6805 23.746 37.2838 23.746 36.7945V35.9085C23.746 35.4192 23.3493 35.0225 22.86 35.0225Z" fill="white"/>
<path d="M19.3159 38.5664H18.4299C17.9407 38.5664 17.5439 38.9631 17.5439 39.4524V40.3384C17.5439 40.8277 17.9407 41.2244 18.4299 41.2244H19.3159C19.8052 41.2244 20.2019 40.8277 20.2019 40.3384V39.4524C20.2019 38.9631 19.8052 38.5664 19.3159 38.5664Z" fill="white"/>
<path d="M22.86 38.5664H21.974C21.4847 38.5664 21.088 38.9631 21.088 39.4524V40.3384C21.088 40.8277 21.4847 41.2244 21.974 41.2244H22.86C23.3493 41.2244 23.746 40.8277 23.746 40.3384V39.4524C23.746 38.9631 23.3493 38.5664 22.86 38.5664Z" fill="white"/>
<path d="M19.3159 42.1104H18.4299C17.9407 42.1104 17.5439 42.5071 17.5439 42.9964V43.8824C17.5439 44.3716 17.9407 44.7684 18.4299 44.7684H19.3159C19.8052 44.7684 20.2019 44.3716 20.2019 43.8824V42.9964C20.2019 42.5071 19.8052 42.1104 19.3159 42.1104Z" fill="white"/>
<path d="M22.86 42.1104H21.974C21.4847 42.1104 21.088 42.5071 21.088 42.9964V43.8824C21.088 44.3716 21.4847 44.7684 21.974 44.7684H22.86C23.3493 44.7684 23.746 44.3716 23.746 43.8824V42.9964C23.746 42.5071 23.3493 42.1104 22.86 42.1104Z" fill="white"/>
<path d="M19.3159 45.6543H18.4299C17.9407 45.6543 17.5439 46.051 17.5439 46.5403V47.4263C17.5439 47.9156 17.9407 48.3123 18.4299 48.3123H19.3159C19.8052 48.3123 20.2019 47.9156 20.2019 47.4263V46.5403C20.2019 46.051 19.8052 45.6543 19.3159 45.6543Z" fill="white"/>
<path d="M22.86 45.6543H21.974C21.4847 45.6543 21.088 46.051 21.088 46.5403V47.4263C21.088 47.9156 21.4847 48.3123 21.974 48.3123H22.86C23.3493 48.3123 23.746 47.9156 23.746 47.4263V46.5403C23.746 46.051 23.3493 45.6543 22.86 45.6543Z" fill="white"/>
<path d="M19.3159 49.1982H18.4299C17.9407 49.1982 17.5439 49.5949 17.5439 50.0842V50.9702C17.5439 51.4595 17.9407 51.8562 18.4299 51.8562H19.3159C19.8052 51.8562 20.2019 51.4595 20.2019 50.9702V50.0842C20.2019 49.5949 19.8052 49.1982 19.3159 49.1982Z" fill="white"/>
<path d="M22.86 49.1982H21.974C21.4847 49.1982 21.088 49.5949 21.088 50.0842V50.9702C21.088 51.4595 21.4847 51.8562 21.974 51.8562H22.86C23.3493 51.8562 23.746 51.4595 23.746 50.9702V50.0842C23.746 49.5949 23.3493 49.1982 22.86 49.1982Z" fill="white"/>
<path d="M19.3159 52.7422H18.4299C17.9407 52.7422 17.5439 53.1389 17.5439 53.6282V54.5142C17.5439 55.0035 17.9407 55.4002 18.4299 55.4002H19.3159C19.8052 55.4002 20.2019 55.0035 20.2019 54.5142V53.6282C20.2019 53.1389 19.8052 52.7422 19.3159 52.7422Z" fill="white"/>
<path d="M22.86 52.7422H21.974C21.4847 52.7422 21.088 53.1389 21.088 53.6282V54.5142C21.088 55.0035 21.4847 55.4002 21.974 55.4002H22.86C23.3493 55.4002 23.746 55.0035 23.746 54.5142V53.6282C23.746 53.1389 23.3493 52.7422 22.86 52.7422Z" fill="white"/>
<path d="M62.7299 19.0742H59.1859C58.6966 19.0742 58.2999 19.4709 58.2999 19.9602V23.5042C58.2999 23.9935 58.6966 24.3902 59.1859 24.3902H62.7299C63.2192 24.3902 63.6159 23.9935 63.6159 23.5042V19.9602C63.6159 19.4709 63.2192 19.0742 62.7299 19.0742ZM61.8439 22.6182H60.0719V20.8462H61.8439V22.6182Z" fill="white"/>
<path d="M62.7299 26.1621H59.1859C58.6966 26.1621 58.2999 26.5588 58.2999 27.0481V30.5921C58.2999 31.0814 58.6966 31.4781 59.1859 31.4781H62.7299C63.2192 31.4781 63.6159 31.0814 63.6159 30.5921V27.0481C63.6159 26.5588 63.2192 26.1621 62.7299 26.1621ZM61.8439 29.7061H60.0719V27.9341H61.8439V29.7061Z" fill="white"/>
<path d="M62.7299 33.25H59.1859C58.6966 33.25 58.2999 33.6467 58.2999 34.136V37.68C58.2999 38.1693 58.6966 38.566 59.1859 38.566H62.7299C63.2192 38.566 63.6159 38.1693 63.6159 37.68V34.136C63.6159 33.6467 63.2192 33.25 62.7299 33.25ZM61.8439 36.794H60.0719V35.022H61.8439V36.794Z" fill="white"/>
<path d="M62.7299 40.3379H59.1859C58.6966 40.3379 58.2999 40.7346 58.2999 41.2239V44.7679C58.2999 45.2572 58.6966 45.6539 59.1859 45.6539H62.7299C63.2192 45.6539 63.6159 45.2572 63.6159 44.7679V41.2239C63.6159 40.7346 63.2192 40.3379 62.7299 40.3379ZM61.8439 43.8819H60.0719V42.1099H61.8439V43.8819Z" fill="white"/>
<path d="M62.7299 47.4258H59.1859C58.6966 47.4258 58.2999 47.8225 58.2999 48.3118V51.8558C58.2999 52.3451 58.6966 52.7418 59.1859 52.7418H62.7299C63.2192 52.7418 63.6159 52.3451 63.6159 51.8558V48.3118C63.6159 47.8225 63.2192 47.4258 62.7299 47.4258ZM61.8439 50.9698H60.0719V49.1978H61.8439V50.9698Z" fill="white"/>
</g>
</g>
<defs>
<filter id="filter0_ddd" x="-34.9114" y="-31.7851" width="150.983" height="157.54" filterUnits="userSpaceOnUse" color-interpolation-filters="sRGB">
<feFlood flood-opacity="0" result="BackgroundImageFix"/>
<feColorMatrix in="SourceAlpha" type="matrix" values="0 0 0 0 0 0 0 0 0 0 0 0 0 0 0 0 0 0 127 0"/>
<feOffset dy="11.6962"/>
<feGaussianBlur stdDeviation="7.97468"/>
<feColorMatrix type="matrix" values="0 0 0 0 1 0 0 0 0 1 0 0 0 0 1 0 0 0 0.2 0"/>
<feBlend mode="normal" in2="BackgroundImageFix" result="effect1_dropShadow"/>
<feColorMatrix in="SourceAlpha" type="matrix" values="0 0 0 0 0 0 0 0 0 0 0 0 0 0 0 0 0 0 127 0"/>
<feOffset dy="9.56962"/>
<feGaussianBlur stdDeviation="24.4557"/>
<feColorMatrix type="matrix" values="0 0 0 0 1 0 0 0 0 1 0 0 0 0 1 0 0 0 0.12 0"/>
<feBlend mode="normal" in2="effect1_dropShadow" result="effect2_dropShadow"/>
<feColorMatrix in="SourceAlpha" type="matrix" values="0 0 0 0 0 0 0 0 0 0 0 0 0 0 0 0 0 0 127 0"/>
<feOffset dy="25.519"/>
<feGaussianBlur stdDeviation="20.2025"/>
<feColorMatrix type="matrix" values="0 0 0 0 1 0 0 0 0 1 0 0 0 0 1 0 0 0 0.14 0"/>
<feBlend mode="normal" in2="effect2_dropShadow" result="effect3_dropShadow"/>
<feBlend mode="normal" in="SourceGraphic" in2="effect3_dropShadow" result="shape"/>
</filter>
<clipPath id="clip0">
<rect width="84" height="69.11" fill="white"/>
</clipPath>
</defs>
</svg>
