<svg width="84" height="70" viewBox="0 0 84 70" fill="none" xmlns="http://www.w3.org/2000/svg">
<g clip-path="url(#clip0)">
<path d="M40.9366 69.114C60.0219 69.114 75.4936 53.6423 75.4936 34.557C75.4936 15.4717 60.0219 0 40.9366 0C21.8513 0 6.37964 15.4717 6.37964 34.557C6.37964 53.6423 21.8513 69.114 40.9366 69.114Z" fill="#FCFCFC" fill-opacity="0.2"/>
<path d="M79.2152 53.165H52.633C49.9904 53.165 47.8481 55.3073 47.8481 57.9498C47.8481 60.5924 49.9904 62.7347 52.633 62.7347H79.2152C81.8578 62.7347 84 60.5924 84 57.9498C84 55.3073 81.8578 53.165 79.2152 53.165Z" fill="#FCFCFC" fill-opacity="0.09"/>
<path d="M31.3671 39.3418H4.78481C2.14223 39.3418 0 41.484 0 44.1266C0 46.7692 2.14223 48.9114 4.78481 48.9114H31.3671C34.0097 48.9114 36.1519 46.7692 36.1519 44.1266C36.1519 41.484 34.0097 39.3418 31.3671 39.3418Z" fill="#FCFCFC" fill-opacity="0.09"/>
<path d="M45.1898 10.6328H6.91127C4.2687 10.6328 2.12646 12.775 2.12646 15.4176C2.12646 18.0602 4.2687 20.2024 6.91127 20.2024H45.1898C47.8323 20.2024 49.9746 18.0602 49.9746 15.4176C49.9746 12.775 47.8323 10.6328 45.1898 10.6328Z" fill="#FCFCFC" fill-opacity="0.09"/>
<path d="M41.9999 62.7347C44.6425 62.7347 46.7847 60.5924 46.7847 57.9499C46.7847 55.3073 44.6425 53.165 41.9999 53.165C39.3573 53.165 37.2151 55.3073 37.2151 57.9499C37.2151 60.5924 39.3573 62.7347 41.9999 62.7347Z" fill="#FCFCFC" fill-opacity="0.2"/>
<path d="M77.0885 26.582H50.5062C47.8637 26.582 45.7214 28.7243 45.7214 31.3668C45.7214 34.0094 47.8637 36.1517 50.5062 36.1517H77.0885C79.7311 36.1517 81.8733 34.0094 81.8733 31.3668C81.8733 28.7243 79.7311 26.582 77.0885 26.582Z" fill="#FCFCFC" fill-opacity="0.09"/>
<g filter="url(#filter0_ddd)">
<path d="M23.1506 18.518C23.7388 18.9668 24.579 18.8538 25.028 18.266C28.9788 13.0897 34.971 10.1212 41.4683 10.1212C47.9657 10.1212 53.9579 13.0898 57.9087 18.266C58.1724 18.6113 58.571 18.7926 58.9745 18.7926C59.2577 18.7926 59.5436 18.7031 59.7861 18.518C60.374 18.069 60.4868 17.2286 60.0382 16.6406C55.5761 10.795 48.8077 7.44238 41.4683 7.44238C34.1289 7.44238 27.3606 10.795 22.8987 16.6406C22.4499 17.2286 22.5627 18.069 23.1506 18.518Z" fill="white"/>
<path d="M55.7057 25.6627C55.7057 27.9692 57.5824 29.8459 59.8889 29.8459C62.1954 29.8459 64.072 27.9692 64.072 25.6627C64.072 23.3562 62.1954 21.4795 59.8889 21.4795C57.5824 21.4795 55.7057 23.356 55.7057 25.6627Z" fill="white"/>
<path d="M64.1699 31.2341C64.1602 31.2309 63.1063 30.9074 63.1063 30.9074C62.7246 30.7909 62.31 30.8626 61.9905 31.1018L59.8888 32.6754L57.7871 31.1018C57.4674 30.8625 57.0527 30.7907 56.6714 30.9074C56.6714 30.9074 55.6174 31.2309 55.6077 31.2341C53.9118 31.7996 52.7725 33.3804 52.7725 35.1679V41.492C52.7725 41.736 52.8437 41.9746 52.978 42.1783L55.0988 45.4059V53.8822C55.0988 54.5726 55.6584 55.1322 56.3488 55.1322H63.429C64.1194 55.1322 64.679 54.5726 64.679 53.8822V45.4059L66.7998 42.1783C66.9339 41.9744 67.005 41.7358 67.005 41.492V35.1679C67.005 33.3804 65.8658 31.7996 64.1699 31.2341Z" fill="white"/>
<path d="M23.0474 29.8459C25.3538 29.8459 27.2305 27.9692 27.2305 25.6627C27.2305 23.3562 25.3538 21.4795 23.0474 21.4795C20.7409 21.4795 18.864 23.356 18.864 25.6627C18.864 27.9693 20.7407 29.8459 23.0474 29.8459Z" fill="white"/>
<path d="M27.3286 31.2341C27.3189 31.2309 26.2649 30.9074 26.2649 30.9074C25.8831 30.7909 25.4689 30.8626 25.1492 31.1018L23.0475 32.6754L20.9458 31.1018C20.6263 30.8625 20.2113 30.7907 19.8301 30.9074C19.8301 30.9074 18.7761 31.2309 18.7664 31.2341C17.0705 31.7996 15.9312 33.3804 15.9312 35.1679V41.492C15.9312 41.736 16.0024 41.9746 16.1367 42.1783L18.2575 45.4059V53.8822C18.2575 54.5726 18.8171 55.1322 19.5075 55.1322H26.5875C27.2779 55.1322 27.8375 54.5726 27.8375 53.8822V45.4059L29.9584 42.1783C30.0924 41.9744 30.1639 41.7358 30.1639 41.492V35.1679C30.1639 33.3804 29.0243 31.7996 27.3286 31.2341Z" fill="white"/>
<path d="M46.8639 19.7667C46.8639 16.7916 44.4434 14.3711 41.4683 14.3711C38.4933 14.3711 36.0728 16.7916 36.0728 19.7667C36.0728 22.7419 38.4933 25.1623 41.4683 25.1623C44.4434 25.1623 46.8639 22.7419 46.8639 19.7667Z" fill="white"/>
<path d="M47.3945 27.777L47.3856 27.7742L45.8456 27.3016C45.6027 27.2269 45.3431 27.3555 45.2557 27.5952L42.0175 36.4801C41.8307 36.9926 41.1059 36.9926 40.919 36.4801L37.6808 27.5952C37.6103 27.4017 37.4277 27.2803 37.2318 27.2803C37.1855 27.2803 35.5528 27.7735 35.5528 27.7735C33.5855 28.429 32.2712 30.2527 32.2712 32.3148V41.7137C32.2712 41.8069 32.2986 41.8982 32.3498 41.9763L35.7287 47.118V60.1281C35.7287 60.3923 35.9428 60.6064 36.207 60.6064H46.7295C46.9937 60.6064 47.2078 60.3923 47.2078 60.1281V47.118L50.5867 41.9763C50.6379 41.8982 50.6653 41.8069 50.6653 41.7137V32.2901C50.6651 30.2369 49.3457 28.4163 47.3945 27.777Z" fill="white"/>
<path d="M42.7335 27.5912C42.5997 27.4455 42.4041 27.3721 42.2061 27.3721H40.7302C40.5324 27.3721 40.3368 27.4455 40.2029 27.5912C39.9957 27.8169 39.9657 28.1429 40.1126 28.3976L40.9016 29.5869L40.5322 32.7025L41.2595 34.6372C41.3304 34.8318 41.6055 34.8318 41.6766 34.6372L42.4039 32.7025L42.0346 29.5869L42.8235 28.3976C42.9706 28.1429 42.9406 27.8169 42.7335 27.5912Z" fill="white"/>
</g>
</g>
<defs>
<filter id="filter0_ddd" x="-32.9802" y="-31.8994" width="148.897" height="158.43" filterUnits="userSpaceOnUse" color-interpolation-filters="sRGB">
<feFlood flood-opacity="0" result="BackgroundImageFix"/>
<feColorMatrix in="SourceAlpha" type="matrix" values="0 0 0 0 0 0 0 0 0 0 0 0 0 0 0 0 0 0 127 0"/>
<feOffset dy="11.6962"/>
<feGaussianBlur stdDeviation="7.97468"/>
<feColorMatrix type="matrix" values="0 0 0 0 1 0 0 0 0 1 0 0 0 0 1 0 0 0 0.2 0"/>
<feBlend mode="normal" in2="BackgroundImageFix" result="effect1_dropShadow"/>
<feColorMatrix in="SourceAlpha" type="matrix" values="0 0 0 0 0 0 0 0 0 0 0 0 0 0 0 0 0 0 127 0"/>
<feOffset dy="9.56962"/>
<feGaussianBlur stdDeviation="24.4557"/>
<feColorMatrix type="matrix" values="0 0 0 0 1 0 0 0 0 1 0 0 0 0 1 0 0 0 0.12 0"/>
<feBlend mode="normal" in2="effect1_dropShadow" result="effect2_dropShadow"/>
<feColorMatrix in="SourceAlpha" type="matrix" values="0 0 0 0 0 0 0 0 0 0 0 0 0 0 0 0 0 0 127 0"/>
<feOffset dy="25.519"/>
<feGaussianBlur stdDeviation="20.2025"/>
<feColorMatrix type="matrix" values="0 0 0 0 1 0 0 0 0 1 0 0 0 0 1 0 0 0 0.14 0"/>
<feBlend mode="normal" in2="effect2_dropShadow" result="effect3_dropShadow"/>
<feBlend mode="normal" in="SourceGraphic" in2="effect3_dropShadow" result="shape"/>
</filter>
<clipPath id="clip0">
<rect width="84" height="69.11" fill="white"/>
</clipPath>
</defs>
</svg>
