<svg width="165" height="143" viewBox="0 0 165 143" fill="none" xmlns="http://www.w3.org/2000/svg">
<path d="M129.316 46.8711C129.118 46.6206 124.37 40.6639 116.229 34.6832C105.351 26.691 93.5148 22.4666 81.9997 22.4666C70.485 22.4666 58.6485 26.691 47.7699 34.6832C39.6294 40.6637 34.8811 46.6206 34.6831 46.8711L33 48.9998L34.6833 51.1286C34.8813 51.3792 39.6297 57.3361 47.7701 63.3168C58.6487 71.3088 70.4852 75.5332 81.9999 75.5332C93.5148 75.5332 105.351 71.3088 116.229 63.3168C124.37 57.3361 129.118 51.3792 129.316 51.1286L131 48.9998L129.316 46.8711ZM81.9997 67.5878C71.7503 67.5878 63.4117 59.2494 63.4117 48.9998C63.4117 47.394 63.6163 45.8351 64.001 44.3477L59.7572 43.6335C59.3414 45.3552 59.1209 47.1522 59.1209 48.9998C59.1209 55.6204 61.9489 61.5923 66.459 65.7739C60.6533 63.6294 55.7166 60.62 51.9907 57.8984C47.3747 54.5269 43.9153 51.1171 41.943 48.9998C43.9161 46.8819 47.3751 43.4724 51.9907 40.1012C55.7166 37.3795 60.6535 34.3702 66.459 32.2255L69.3059 35.4345C72.6308 32.3212 77.0962 30.4118 81.9997 30.4118C92.249 30.4118 100.587 38.7502 100.587 48.9998C100.587 59.2494 92.249 67.5878 81.9997 67.5878ZM112.009 57.8984C108.282 60.62 103.346 63.6294 97.5404 65.7739C102.05 61.5925 104.878 55.6207 104.878 48.9996C104.878 42.3785 102.05 36.4068 97.5404 32.2253C103.346 34.37 108.282 37.3793 112.009 40.101C116.625 43.4724 120.084 46.8823 122.056 48.9994C120.083 51.1177 116.624 54.5274 112.009 57.8984Z" fill="black"/>
<path d="M70.1711 45.3865C69.8223 46.5298 69.6333 47.7426 69.6333 49C69.6333 55.8296 75.1699 61.3664 81.9997 61.3664C88.8293 61.3664 94.3659 55.8298 94.3659 49C94.3659 42.1701 88.8293 36.6335 81.9997 36.6335C78.6731 36.6335 75.6556 37.9495 73.4328 40.0863L79.5325 46.9619L70.1711 45.3865Z" fill="black"/>
<path d="M22.9688 118.938L29.2617 133.996L35.5781 118.938H37.5V136H36.0586V128.57L36.1758 120.953L29.8242 136H28.7109L22.3828 121.012L22.5 128.523V136H21.0586V118.938H22.9688ZM54.4336 128.395C54.4336 129.965 54.1602 131.344 53.6133 132.531C53.0742 133.719 52.3008 134.633 51.293 135.273C50.2852 135.914 49.1211 136.234 47.8008 136.234C45.8086 136.234 44.1992 135.523 42.9727 134.102C41.7461 132.672 41.1328 130.746 41.1328 128.324V126.566C41.1328 125.012 41.4062 123.637 41.9531 122.441C42.5078 121.238 43.2891 120.316 44.2969 119.676C45.3047 119.027 46.4648 118.703 47.7773 118.703C49.0898 118.703 50.2461 119.02 51.2461 119.652C52.2539 120.285 53.0312 121.18 53.5781 122.336C54.125 123.492 54.4102 124.832 54.4336 126.355V128.395ZM52.9922 126.543C52.9922 124.488 52.5273 122.879 51.5977 121.715C50.668 120.551 49.3945 119.969 47.7773 119.969C46.1914 119.969 44.9258 120.555 43.9805 121.727C43.043 122.891 42.5742 124.52 42.5742 126.613V128.395C42.5742 130.418 43.043 132.023 43.9805 133.211C44.918 134.391 46.1914 134.98 47.8008 134.98C49.4336 134.98 50.707 134.398 51.6211 133.234C52.5352 132.062 52.9922 130.434 52.9922 128.348V126.543ZM70.7695 136H69.3281L59.5195 121.398V136H58.0664V118.938H59.5195L69.3398 133.551V118.938H70.7695V136ZM76.8633 136H75.4219V118.938H76.8633V136ZM92.7305 120.168H86.8828V136H85.4414V120.168H79.6055V118.938H92.7305V120.168ZM107.777 128.395C107.777 129.965 107.504 131.344 106.957 132.531C106.418 133.719 105.645 134.633 104.637 135.273C103.629 135.914 102.465 136.234 101.145 136.234C99.1523 136.234 97.543 135.523 96.3164 134.102C95.0898 132.672 94.4766 130.746 94.4766 128.324V126.566C94.4766 125.012 94.75 123.637 95.2969 122.441C95.8516 121.238 96.6328 120.316 97.6406 119.676C98.6484 119.027 99.8086 118.703 101.121 118.703C102.434 118.703 103.59 119.02 104.59 119.652C105.598 120.285 106.375 121.18 106.922 122.336C107.469 123.492 107.754 124.832 107.777 126.355V128.395ZM106.336 126.543C106.336 124.488 105.871 122.879 104.941 121.715C104.012 120.551 102.738 119.969 101.121 119.969C99.5352 119.969 98.2695 120.555 97.3242 121.727C96.3867 122.891 95.918 124.52 95.918 126.613V128.395C95.918 130.418 96.3867 132.023 97.3242 133.211C98.2617 134.391 99.5352 134.98 101.145 134.98C102.777 134.98 104.051 134.398 104.965 133.234C105.879 132.062 106.336 130.434 106.336 128.348V126.543ZM117.785 128.898H112.828V136H111.375V118.938H116.918C118.738 118.938 120.16 119.379 121.184 120.262C122.207 121.145 122.719 122.379 122.719 123.965C122.719 125.059 122.398 126.023 121.758 126.859C121.117 127.695 120.258 128.273 119.18 128.594L123.445 135.848V136H121.91L117.785 128.898ZM112.828 127.668H117.246C118.457 127.668 119.43 127.324 120.164 126.637C120.898 125.949 121.266 125.059 121.266 123.965C121.266 122.762 120.883 121.828 120.117 121.164C119.352 120.5 118.277 120.168 116.895 120.168H112.828V127.668ZM128.402 136H126.961V118.938H128.402V136ZM142.465 131.219H134.719L132.961 136H131.449L137.906 118.938H139.277L145.734 136H144.234L142.465 131.219ZM135.164 129.988H142.008L138.586 120.695L135.164 129.988Z" fill="black"/>
</svg>
