<svg width="165" height="143" viewBox="0 0 165 143" fill="none" xmlns="http://www.w3.org/2000/svg">
<path d="M48.4579 55.3225C48.8656 55.9158 49.5393 56.2702 50.259 56.2702C50.9787 56.2702 51.6523 55.9156 52.06 55.3225L58.3448 46.1758C58.8042 45.5073 58.8553 44.6388 58.4774 43.9206C58.0996 43.2027 57.355 42.7531 56.5435 42.7531H54.8852C57.9043 30.8627 68.6979 22.0404 81.5143 22.0404C91.4519 22.0404 100.644 27.4335 105.504 36.1149C106.552 37.9869 108.919 38.6553 110.792 37.6071C112.664 36.5591 113.332 34.192 112.284 32.3198C106.052 21.1868 94.2616 14.2708 81.5145 14.2708C64.3939 14.2708 50.0881 26.5435 46.9266 42.7531H43.9742C43.1628 42.7531 42.4182 43.2027 42.0403 43.9206C41.6624 44.6388 41.7138 45.5071 42.173 46.1758L48.4579 55.3225Z" fill="black"/>
<path d="M131.072 82.5443L121.925 76.2597C121.257 75.8003 120.388 75.7492 119.67 76.127C118.952 76.5049 118.503 77.2495 118.503 78.061V80.4608H103.559C106.699 77.9328 109.409 74.8709 111.526 71.4387C113.736 67.856 115.295 63.88 116.101 59.7481H119.055C119.866 59.7481 120.611 59.2985 120.989 58.5805C121.367 57.8624 121.315 56.9941 120.856 56.3254L114.571 47.1786C114.164 46.5853 113.49 46.231 112.77 46.231C112.051 46.231 111.377 46.5855 110.969 47.1786L104.685 56.3254C104.225 56.9939 104.174 57.8624 104.552 58.5805C104.93 59.2985 105.674 59.7481 106.486 59.7481H108.144C105.125 71.6384 94.3314 80.4608 81.515 80.4608C71.4937 80.4608 62.2639 75.0004 57.4276 66.2104C56.3933 64.3312 54.0309 63.6454 52.1512 64.6795C50.2714 65.7138 49.586 68.0761 50.6203 69.9558C52.8853 74.0722 55.9044 77.6161 59.4477 80.4606H39.8646C37.7192 80.4606 35.9799 82.1997 35.9799 84.3453C35.9799 86.4909 37.7192 88.23 39.8646 88.23C41.5076 88.23 118.503 88.23 118.503 88.23V90.6301C118.503 91.4415 118.952 92.1859 119.67 92.564C119.99 92.7322 120.339 92.8153 120.688 92.8153C121.122 92.8153 121.554 92.6861 121.925 92.4311L131.072 86.1464C131.665 85.7387 132.02 85.0652 132.02 84.3453C132.02 83.6254 131.665 82.9518 131.072 82.5443Z" fill="black"/>
<path d="M73.3392 3.10327C73.3392 2.56192 73.778 2.12327 74.3192 2.12327H75.4624V0.98C75.4624 0.438648 75.9013 0 76.4424 0C76.9836 0 77.4224 0.438648 77.4224 0.98V2.12327H78.5657C79.1069 2.12327 79.5457 2.56192 79.5457 3.10327C79.5457 3.64462 79.1069 4.08327 78.5657 4.08327H77.4224V5.22654C77.4224 5.76789 76.9836 6.20654 76.4424 6.20654C75.9013 6.20654 75.4624 5.76789 75.4624 5.22654V4.08327H74.3192C73.778 4.08327 73.3392 3.64462 73.3392 3.10327ZM83.45 4.08327H84.5933V5.22654C84.5933 5.76789 85.0321 6.20654 85.5733 6.20654C86.1145 6.20654 86.5533 5.76789 86.5533 5.22654V4.08327H87.6966C88.2377 4.08327 88.6766 3.64462 88.6766 3.10327C88.6766 2.56192 88.2377 2.12327 87.6966 2.12327H86.5533V0.98C86.5533 0.438648 86.1145 0 85.5733 0C85.0321 0 84.5933 0.438648 84.5933 0.98V2.12327H83.45C82.9089 2.12327 82.47 2.56192 82.47 3.10327C82.47 3.64462 82.9089 4.08327 83.45 4.08327ZM111.678 96.04H42.6166C42.0754 96.04 41.6366 96.4787 41.6366 97.02C41.6366 97.5614 42.0754 98 42.6166 98H111.678C112.219 98 112.658 97.5614 112.658 97.02C112.658 96.4787 112.219 96.04 111.678 96.04ZM38.7558 96.04H37.4034C36.8622 96.04 36.4234 96.4787 36.4234 97.02C36.4234 97.5614 36.8622 98 37.4034 98H38.7558C39.2969 98 39.7358 97.5614 39.7358 97.02C39.7358 96.4787 39.2969 96.04 38.7558 96.04ZM41.3657 46.7305C40.6981 45.7591 40.6244 44.5075 41.1734 43.4642C41.7224 42.4211 42.7957 41.7731 43.9746 41.7731H46.1287C49.7412 25.2201 64.4943 13.2908 81.5145 13.2908C94.6158 13.2908 106.734 20.3989 113.139 31.8412C113.774 32.975 113.929 34.288 113.576 35.5387C113.223 36.7892 112.404 37.8276 111.27 38.4623C110.137 39.0969 108.824 39.2525 107.573 38.8991C106.322 38.5461 105.284 37.7275 104.649 36.5936C99.9624 28.2213 91.0978 23.0202 81.5145 23.0202C69.8055 23.0202 59.5623 30.6687 56.1762 41.7731H56.5437C57.7225 41.7731 58.7958 42.4211 59.3448 43.4642C59.8938 44.5075 59.8201 45.7591 59.1525 46.7305L52.8678 55.8773C52.277 56.7371 51.3019 57.2502 50.259 57.2502C49.2161 57.2502 48.2408 56.7371 47.65 55.8773L41.3657 46.7305ZM42.9811 45.6206L49.2659 54.7675C49.4907 55.0948 49.8621 55.2902 50.2592 55.2902C50.6563 55.2902 51.0275 55.0948 51.2525 54.7675L57.5373 45.6206C57.7915 45.2507 57.8195 44.7742 57.6106 44.3768C57.4016 43.9799 56.993 43.7331 56.5441 43.7331H54.8858C54.5833 43.7331 54.2978 43.5935 54.1122 43.3546C53.9265 43.1159 53.8615 42.8048 53.936 42.5118C57.1431 29.8814 68.4841 21.0602 81.5149 21.0602C91.8069 21.0602 101.327 26.6454 106.36 35.6361C106.739 36.3131 107.359 36.8019 108.105 37.0126C108.852 37.2235 109.636 37.131 110.313 36.7518C110.991 36.3725 111.48 35.7528 111.69 35.0062C111.901 34.2596 111.808 33.4752 111.429 32.7982C105.37 21.9743 93.9076 15.2506 81.5149 15.2506C65.1601 15.2506 51.0181 26.8959 47.8888 42.9405C47.799 43.4009 47.3958 43.7329 46.9268 43.7329H43.9744C43.5254 43.7329 43.1168 43.9797 42.9078 44.3766C42.6989 44.774 42.7269 45.2507 42.9811 45.6206ZM74.5173 89.2112L39.8647 89.21C37.1823 89.21 35 87.0275 35 84.3453C35 81.663 37.1823 79.4806 39.8647 79.4806H56.8156C53.9955 76.8581 51.629 73.8224 49.7613 70.4279C48.4683 68.0777 49.3284 65.1136 51.6784 63.8204C54.0285 62.5271 56.9926 63.3876 58.2858 65.7374C62.9498 74.2144 71.8505 79.4804 81.5145 79.4804C93.2236 79.4804 103.467 71.8318 106.853 60.7275H106.485C105.306 60.7275 104.233 60.0795 103.684 59.0364C103.135 57.9931 103.209 56.7414 103.876 55.77L110.161 46.6233C110.752 45.7635 111.727 45.2503 112.77 45.2503C113.813 45.2503 114.788 45.7635 115.379 46.6231L121.663 55.77C122.331 56.7414 122.405 57.9929 121.856 59.0362C121.307 60.0795 120.234 60.7275 119.055 60.7275H116.899C116.032 64.7006 114.506 68.4734 112.36 71.9526C109.158 77.1431 104.678 81.4731 99.4034 84.4744C93.9054 87.6032 87.4715 89.1965 80.2805 89.2098C79.3199 89.2116 78.3593 89.2122 77.3987 89.2122C76.4383 89.2123 75.4779 89.2118 74.5173 89.2112ZM39.8647 87.25L74.5183 87.2512C76.4377 87.2523 78.3574 87.2535 80.277 87.25C87.2217 87.2371 93.161 85.772 98.4342 82.771C103.424 79.9319 107.662 75.8352 110.692 70.9238C112.856 67.4154 114.353 63.592 115.139 59.5599C115.229 59.0995 115.632 58.7675 116.101 58.7675H119.054C119.503 58.7675 119.912 58.5207 120.121 58.1238C120.33 57.7265 120.302 57.2498 120.048 56.88L113.763 47.7331C113.538 47.4057 113.167 47.2103 112.77 47.2103C112.373 47.2103 112.002 47.4057 111.777 47.7331L105.492 56.88C105.238 57.2498 105.21 57.7263 105.418 58.124C105.627 58.5207 106.036 58.7675 106.485 58.7675H108.143C108.446 58.7675 108.731 58.907 108.917 59.1459C109.103 59.3847 109.168 59.6957 109.093 59.9887C105.886 72.6192 94.545 81.4404 81.5141 81.4404C71.1353 81.4404 61.5766 75.7854 56.5682 66.6823C55.7962 65.2792 54.0263 64.7657 52.6229 65.5375C51.2198 66.3095 50.7063 68.0796 51.4785 69.483C53.6518 73.4326 56.5392 76.869 60.0608 79.696C60.3849 79.9564 60.5098 80.3931 60.3716 80.7855C60.2334 81.1779 59.863 81.4404 59.4471 81.4404H39.8647C38.263 81.4404 36.96 82.7434 36.96 84.3451C36.96 85.9468 38.263 87.25 39.8647 87.25ZM131.627 81.7363L122.48 75.4518C121.509 74.7844 120.257 74.7105 119.214 75.2597C118.171 75.8087 117.523 76.8818 117.523 78.0607V79.4806H109.978C109.437 79.4806 108.998 79.9192 108.998 80.4605C108.998 81.0019 109.437 81.4406 109.978 81.4406H118.503C119.044 81.4406 119.483 81.0019 119.483 80.4605V78.0607C119.483 77.6119 119.73 77.2032 120.127 76.9943C120.524 76.785 121.001 76.8134 121.371 77.0674L130.517 83.352C130.845 83.5768 131.04 83.9482 131.04 84.3453C131.04 84.7424 130.845 85.1138 130.517 85.3386L121.371 91.6231C121.008 91.8721 120.516 91.9013 120.127 91.6964C119.73 91.4875 119.483 91.0788 119.483 90.63V88.23C119.483 87.6886 119.044 87.25 118.503 87.25H103.113C102.572 87.25 102.133 87.6886 102.133 88.23C102.133 88.7713 102.572 89.21 103.113 89.21H117.523V90.63C117.523 91.809 118.171 92.882 119.214 93.431C119.667 93.6692 120.176 93.795 120.688 93.795C121.331 93.795 121.951 93.6028 122.48 93.2388L131.627 86.954C132.487 86.3633 133 85.388 133 84.3451C133 83.3022 132.487 82.3271 131.627 81.7363ZM99.2184 87.25C98.6773 87.25 98.2384 87.6886 98.2384 88.23C98.2384 88.7713 98.6773 89.21 99.2184 89.21H99.9991C100.54 89.21 100.979 88.7713 100.979 88.23C100.979 87.6886 100.54 87.25 99.9991 87.25H99.2184Z" fill="black"/>
<path d="M35.5781 131.219H27.832L26.0742 136H24.5625L31.0195 118.938H32.3906L38.8477 136H37.3477L35.5781 131.219ZM28.2773 129.988H35.1211L31.6992 120.695L28.2773 129.988ZM53.543 133.973C53.043 134.684 52.2578 135.238 51.1875 135.637C50.125 136.035 48.9336 136.234 47.6133 136.234C46.2773 136.234 45.0898 135.914 44.0508 135.273C43.0117 134.633 42.207 133.727 41.6367 132.555C41.0664 131.383 40.7773 130.039 40.7695 128.523V126.367C40.7695 124 41.3672 122.133 42.5625 120.766C43.7578 119.391 45.3633 118.703 47.3789 118.703C49.1367 118.703 50.5508 119.152 51.6211 120.051C52.6914 120.941 53.3281 122.172 53.5312 123.742H52.0898C51.8789 122.492 51.3672 121.547 50.5547 120.906C49.75 120.258 48.6953 119.934 47.3906 119.934C45.7969 119.934 44.5352 120.5 43.6055 121.633C42.6758 122.766 42.2109 124.363 42.2109 126.426V128.441C42.2109 129.738 42.4297 130.887 42.8672 131.887C43.3125 132.879 43.9453 133.648 44.7656 134.195C45.5938 134.742 46.543 135.016 47.6133 135.016C48.8555 135.016 49.9219 134.82 50.8125 134.43C51.3906 134.172 51.8203 133.871 52.1016 133.527V129.121H47.5195V127.902H53.543V133.973ZM59.3906 136H57.9492V118.938H59.3906V136ZM65.4844 134.781H73.9102V136H64.0312V118.938H65.4844V134.781ZM78.4453 136H77.0039V118.938H78.4453V136ZM83.0859 136V118.938H87.8555C89.2539 118.938 90.5078 119.258 91.6172 119.898C92.7266 120.531 93.5898 121.441 94.207 122.629C94.832 123.816 95.1445 125.168 95.1445 126.684V128.254C95.1445 129.777 94.8359 131.129 94.2188 132.309C93.6016 133.488 92.7305 134.398 91.6055 135.039C90.4883 135.68 89.2031 136 87.75 136H83.0859ZM84.5273 120.168V134.781H87.7617C89.5586 134.781 91 134.188 92.0859 133C93.1719 131.805 93.7148 130.191 93.7148 128.16V126.66C93.7148 124.699 93.1797 123.129 92.1094 121.949C91.0391 120.77 89.6289 120.176 87.8789 120.168H84.5273ZM107.766 131.219H100.02L98.2617 136H96.75L103.207 118.938H104.578L111.035 136H109.535L107.766 131.219ZM100.465 129.988H107.309L103.887 120.695L100.465 129.988ZM113.555 136V118.938H118.324C119.723 118.938 120.977 119.258 122.086 119.898C123.195 120.531 124.059 121.441 124.676 122.629C125.301 123.816 125.613 125.168 125.613 126.684V128.254C125.613 129.777 125.305 131.129 124.688 132.309C124.07 133.488 123.199 134.398 122.074 135.039C120.957 135.68 119.672 136 118.219 136H113.555ZM114.996 120.168V134.781H118.23C120.027 134.781 121.469 134.188 122.555 133C123.641 131.805 124.184 130.191 124.184 128.16V126.66C124.184 124.699 123.648 123.129 122.578 121.949C121.508 120.77 120.098 120.176 118.348 120.168H114.996ZM138.703 127.82H130.723V134.781H139.898V136H129.281V118.938H139.84V120.168H130.723V126.602H138.703V127.82Z" fill="black"/>
</svg>
