<svg width="165" height="143" viewBox="0 0 165 143" fill="none" xmlns="http://www.w3.org/2000/svg">
<g clip-path="url(#clip0)">
<path d="M124.629 26.5896L124.626 26.5134C124.583 25.572 124.555 24.5761 124.537 23.4681C124.457 18.0646 120.162 13.595 114.758 13.2929C103.49 12.6641 94.7738 8.99003 87.3262 1.73082L87.2626 1.67026C84.8334 -0.557078 81.169 -0.557078 78.7391 1.67026L78.6755 1.73082C71.2279 8.99003 62.5115 12.6641 51.2439 13.2937C45.8405 13.595 41.5443 18.0646 41.4643 23.4688C41.4479 24.5694 41.4187 25.5653 41.3761 26.5134L41.3716 26.6906C41.1525 38.1802 40.8804 52.4795 45.664 65.4585C48.2943 72.5958 52.278 78.8 57.5035 83.9C63.455 89.7079 71.2503 94.3189 80.6726 97.6042C80.9791 97.7111 81.2976 97.7978 81.6221 97.8629C82.0797 97.9541 82.5403 97.9997 83.0008 97.9997C83.4614 97.9997 83.9227 97.9541 84.3796 97.8629C84.704 97.7978 85.0248 97.7103 85.3328 97.6027C94.7439 94.3114 102.531 89.6982 108.477 83.891C113.701 78.7896 117.684 72.5838 120.317 65.445C125.118 52.4272 124.847 38.1009 124.629 26.5896ZM114.921 63.4554C109.876 77.135 99.5769 86.5295 83.4352 92.1745C83.3777 92.194 83.3164 92.2112 83.2528 92.2239C83.0861 92.2568 82.9163 92.2568 82.7474 92.2231C82.6846 92.2104 82.6233 92.194 82.5664 92.1745C66.4076 86.54 56.1016 77.1507 51.06 63.4704C46.651 51.5068 46.9007 38.3805 47.1212 26.8005L47.1227 26.7362C47.1676 25.741 47.1975 24.6988 47.214 23.5533C47.2498 21.154 49.1609 19.1689 51.5647 19.0351C57.9409 18.6792 63.5425 17.447 68.6895 15.2683C73.8298 13.0925 78.3951 10.0256 82.6449 5.8924C82.861 5.70996 83.1414 5.70922 83.3567 5.8924C87.6073 10.0256 92.1726 13.0925 97.3121 15.2683C102.459 17.447 108.061 18.6792 114.438 19.0351C116.842 19.1689 118.753 21.154 118.788 23.5541C118.805 24.7055 118.835 25.7478 118.88 26.7362C119.1 38.3297 119.343 51.4664 114.921 63.4554Z" fill="black"/>
<path d="M82.9995 24.5786C69.5323 24.5786 58.5765 35.5351 58.5765 49.0016C58.5765 62.4688 69.5323 73.4253 82.9995 73.4253C96.466 73.4253 107.423 62.4688 107.423 49.0016C107.423 35.5351 96.466 24.5786 82.9995 24.5786ZM82.9995 67.6742C72.7032 67.6742 64.3269 59.2979 64.3269 49.0016C64.3269 38.7053 72.7032 30.329 82.9995 30.329C93.2951 30.329 101.671 38.7053 101.671 49.0016C101.671 59.2979 93.2951 67.6742 82.9995 67.6742Z" fill="black"/>
<path d="M90.0187 41.4192L78.6749 52.7631L75.596 49.6841C74.4729 48.5611 72.6523 48.5611 71.5293 49.6841C70.4071 50.8071 70.4071 52.6277 71.5293 53.75L76.642 58.8626C77.2035 59.4241 77.9392 59.7045 78.6749 59.7045C79.4106 59.7045 80.1463 59.4241 80.7079 58.8626L94.0854 45.4851C95.2076 44.3621 95.2076 42.5415 94.0854 41.4192C92.9623 40.2955 91.1417 40.2955 90.0187 41.4192Z" fill="black"/>
</g>
<path d="M25.3477 131.805C25.3477 130.859 25.0156 130.113 24.3516 129.566C23.6875 129.012 22.4727 128.488 20.707 127.996C18.9414 127.496 17.6523 126.953 16.8398 126.367C15.6836 125.539 15.1055 124.453 15.1055 123.109C15.1055 121.805 15.6406 120.746 16.7109 119.934C17.7891 119.113 19.1641 118.703 20.8359 118.703C21.9688 118.703 22.9805 118.922 23.8711 119.359C24.7695 119.797 25.4648 120.406 25.957 121.188C26.4492 121.969 26.6953 122.84 26.6953 123.801H25.2422C25.2422 122.637 24.8438 121.703 24.0469 121C23.25 120.289 22.1797 119.934 20.8359 119.934C19.5312 119.934 18.4922 120.227 17.7188 120.812C16.9453 121.391 16.5586 122.148 16.5586 123.086C16.5586 123.953 16.9062 124.66 17.6016 125.207C18.2969 125.754 19.4102 126.238 20.9414 126.66C22.4727 127.074 23.6328 127.508 24.4219 127.961C25.2109 128.406 25.8047 128.941 26.2031 129.566C26.6016 130.191 26.8008 130.93 26.8008 131.781C26.8008 133.125 26.2617 134.203 25.1836 135.016C24.1133 135.828 22.6992 136.234 20.9414 136.234C19.7383 136.234 18.6328 136.02 17.625 135.59C16.625 135.16 15.8633 134.559 15.3398 133.785C14.8242 133.012 14.5664 132.125 14.5664 131.125H16.0078C16.0078 132.328 16.457 133.277 17.3555 133.973C18.2539 134.668 19.4492 135.016 20.9414 135.016C22.2695 135.016 23.3359 134.723 24.1406 134.137C24.9453 133.551 25.3477 132.773 25.3477 131.805ZM39.3398 127.82H31.3594V134.781H40.5352V136H29.918V118.938H40.4766V120.168H31.3594V126.602H39.3398V127.82ZM55.8984 133.973C55.3984 134.684 54.6133 135.238 53.543 135.637C52.4805 136.035 51.2891 136.234 49.9688 136.234C48.6328 136.234 47.4453 135.914 46.4062 135.273C45.3672 134.633 44.5625 133.727 43.9922 132.555C43.4219 131.383 43.1328 130.039 43.125 128.523V126.367C43.125 124 43.7227 122.133 44.918 120.766C46.1133 119.391 47.7188 118.703 49.7344 118.703C51.4922 118.703 52.9062 119.152 53.9766 120.051C55.0469 120.941 55.6836 122.172 55.8867 123.742H54.4453C54.2344 122.492 53.7227 121.547 52.9102 120.906C52.1055 120.258 51.0508 119.934 49.7461 119.934C48.1523 119.934 46.8906 120.5 45.9609 121.633C45.0312 122.766 44.5664 124.363 44.5664 126.426V128.441C44.5664 129.738 44.7852 130.887 45.2227 131.887C45.668 132.879 46.3008 133.648 47.1211 134.195C47.9492 134.742 48.8984 135.016 49.9688 135.016C51.2109 135.016 52.2773 134.82 53.168 134.43C53.7461 134.172 54.1758 133.871 54.457 133.527V129.121H49.875V127.902H55.8984V133.973ZM71.7422 118.938V130.586C71.7344 131.734 71.4805 132.734 70.9805 133.586C70.4805 134.438 69.7734 135.094 68.8594 135.555C67.9531 136.008 66.9102 136.234 65.7305 136.234C63.9336 136.234 62.4922 135.746 61.4062 134.77C60.3281 133.785 59.7695 132.426 59.7305 130.691V118.938H61.1602V130.48C61.1602 131.918 61.5703 133.035 62.3906 133.832C63.2109 134.621 64.3242 135.016 65.7305 135.016C67.1367 135.016 68.2461 134.617 69.0586 133.82C69.8789 133.023 70.2891 131.914 70.2891 130.492V118.938H71.7422ZM82.1367 128.898H77.1797V136H75.7266V118.938H81.2695C83.0898 118.938 84.5117 119.379 85.5352 120.262C86.5586 121.145 87.0703 122.379 87.0703 123.965C87.0703 125.059 86.75 126.023 86.1094 126.859C85.4688 127.695 84.6094 128.273 83.5312 128.594L87.7969 135.848V136H86.2617L82.1367 128.898ZM77.1797 127.668H81.5977C82.8086 127.668 83.7812 127.324 84.5156 126.637C85.25 125.949 85.6172 125.059 85.6172 123.965C85.6172 122.762 85.2344 121.828 84.4688 121.164C83.7031 120.5 82.6289 120.168 81.2461 120.168H77.1797V127.668ZM100.207 131.219H92.4609L90.7031 136H89.1914L95.6484 118.938H97.0195L103.477 136H101.977L100.207 131.219ZM92.9062 129.988H99.75L96.3281 120.695L92.9062 129.988ZM118.699 136H117.258L107.449 121.398V136H105.996V118.938H107.449L117.27 133.551V118.938H118.699V136ZM135.117 130.68C134.922 132.477 134.277 133.852 133.184 134.805C132.098 135.758 130.648 136.234 128.836 136.234C127.57 136.234 126.449 135.918 125.473 135.285C124.504 134.652 123.754 133.758 123.223 132.602C122.691 131.438 122.422 130.109 122.414 128.617V126.402C122.414 124.887 122.68 123.543 123.211 122.371C123.742 121.199 124.504 120.297 125.496 119.664C126.496 119.023 127.645 118.703 128.941 118.703C130.77 118.703 132.211 119.199 133.266 120.191C134.328 121.176 134.945 122.539 135.117 124.281H133.664C133.305 121.383 131.73 119.934 128.941 119.934C127.395 119.934 126.16 120.512 125.238 121.668C124.324 122.824 123.867 124.422 123.867 126.461V128.547C123.867 130.516 124.312 132.086 125.203 133.258C126.102 134.43 127.312 135.016 128.836 135.016C130.344 135.016 131.48 134.656 132.246 133.938C133.012 133.211 133.484 132.125 133.664 130.68H135.117ZM129.41 136.105L129.27 136.855C130.559 137.02 131.203 137.688 131.203 138.859C131.203 139.578 130.895 140.148 130.277 140.57C129.66 140.992 128.82 141.203 127.758 141.203L127.676 140.289C128.371 140.289 128.938 140.16 129.375 139.902C129.82 139.652 130.043 139.312 130.043 138.883C130.043 138.43 129.871 138.117 129.527 137.945C129.191 137.773 128.676 137.656 127.98 137.594L128.32 136.105H129.41ZM147.832 131.219H140.086L138.328 136H136.816L143.273 118.938H144.645L151.102 136H149.602L147.832 131.219ZM140.531 129.988H147.375L143.953 120.695L140.531 129.988Z" fill="black"/>
<defs>
<clipPath id="clip0">
<rect width="98" height="98" fill="white" transform="translate(34)"/>
</clipPath>
</defs>
</svg>
