<svg width="165" height="143" viewBox="0 0 165 143" fill="none" xmlns="http://www.w3.org/2000/svg">
<g clip-path="url(#clip0)">
<path d="M126.483 94.172H122.285V33.2159C122.285 30.3787 119.976 28.0706 117.139 28.0706H107.756C104.918 28.0706 102.61 30.3789 102.61 33.2159V94.172H91.9505V60.8338C91.9505 57.9965 89.6423 55.6884 86.8051 55.6884H77.4216C74.5844 55.6884 72.2763 57.9967 72.2763 60.8338V94.172H61.6165V76.9063C61.6165 74.0691 59.3081 71.761 56.4711 71.761H47.0874C44.2502 71.761 41.942 74.0693 41.942 76.9063V94.172H37.5175C36.4603 94.172 35.6034 95.0289 35.6034 96.086C35.6034 97.1432 36.4603 98.0001 37.5175 98.0001H126.483C127.54 98.0001 128.397 97.1432 128.397 96.086C128.397 95.0289 127.54 94.172 126.483 94.172ZM57.788 94.172H45.7699V76.9063C45.7699 76.1799 46.3608 75.5891 47.0872 75.5891H56.4707C57.1971 75.5891 57.788 76.1799 57.788 76.9063V94.172ZM88.1222 94.172H76.1042V60.8338C76.1042 60.1074 76.6951 59.5165 77.4214 59.5165H86.8049C87.5311 59.5165 88.1222 60.1074 88.1222 60.8338V94.172ZM118.456 94.172H106.438V33.2159C106.438 32.4896 107.029 31.8987 107.756 31.8987H117.139C117.866 31.8987 118.456 32.4896 118.456 33.2159V94.172Z" fill="black"/>
<path d="M122.28 2.01283C122.307 1.49048 122.123 0.959328 121.724 0.560438C121.325 0.161547 120.794 -0.0223945 120.272 0.00459375C120.241 0.00325391 120.21 0 120.179 0H108.599C107.542 0 106.685 0.856926 106.685 1.91406C106.685 2.9712 107.542 3.82812 108.599 3.82812H115.749L96.8275 22.7502L89.6919 15.6145C89.333 15.2557 88.846 15.0539 88.3384 15.0539C87.8308 15.0539 87.3439 15.2557 86.985 15.6145L52.5761 50.0236C51.8286 50.7711 51.8286 51.9831 52.5761 52.7307C52.9499 53.1041 53.4397 53.2909 53.9295 53.2909C54.4193 53.2909 54.9093 53.1041 55.283 52.7303L88.3384 19.6746L95.4741 26.8103C96.2215 27.5577 97.4335 27.5577 98.1811 26.8103L118.456 6.53518V13.0066C118.456 14.0638 119.313 14.9207 120.37 14.9207C121.428 14.9207 122.285 14.0638 122.285 13.0066V2.10547C122.285 2.07427 122.281 2.04384 122.28 2.01283Z" fill="black"/>
<path d="M47.4779 59.9695C48.535 59.9695 49.392 59.1125 49.392 58.0554C49.392 56.9983 48.535 56.1414 47.4779 56.1414C46.4208 56.1414 45.5638 56.9983 45.5638 58.0554C45.5638 59.1125 46.4208 59.9695 47.4779 59.9695Z" fill="black"/>
</g>
<path d="M39.6562 131.219H31.9102L30.1523 136H28.6406L35.0977 118.938H36.4688L42.9258 136H41.4258L39.6562 131.219ZM32.3555 129.988H39.1992L35.7773 120.695L32.3555 129.988ZM58.1484 136H56.707L46.8984 121.398V136H45.4453V118.938H46.8984L56.7188 133.551V118.938H58.1484V136ZM71.9062 131.219H64.1602L62.4023 136H60.8906L67.3477 118.938H68.7188L75.1758 136H73.6758L71.9062 131.219ZM64.6055 129.988H71.4492L68.0273 120.695L64.6055 129.988ZM69.4688 114.309H71.168L68.4609 117.59H67.2305L69.4688 114.309ZM79.1484 134.781H87.5742V136H77.6953V118.938H79.1484V134.781ZM92.1094 136H90.668V118.938H92.1094V136ZM106.406 131.805C106.406 130.859 106.074 130.113 105.41 129.566C104.746 129.012 103.531 128.488 101.766 127.996C100 127.496 98.7109 126.953 97.8984 126.367C96.7422 125.539 96.1641 124.453 96.1641 123.109C96.1641 121.805 96.6992 120.746 97.7695 119.934C98.8477 119.113 100.223 118.703 101.895 118.703C103.027 118.703 104.039 118.922 104.93 119.359C105.828 119.797 106.523 120.406 107.016 121.188C107.508 121.969 107.754 122.84 107.754 123.801H106.301C106.301 122.637 105.902 121.703 105.105 121C104.309 120.289 103.238 119.934 101.895 119.934C100.59 119.934 99.5508 120.227 98.7773 120.812C98.0039 121.391 97.6172 122.148 97.6172 123.086C97.6172 123.953 97.9648 124.66 98.6602 125.207C99.3555 125.754 100.469 126.238 102 126.66C103.531 127.074 104.691 127.508 105.48 127.961C106.27 128.406 106.863 128.941 107.262 129.566C107.66 130.191 107.859 130.93 107.859 131.781C107.859 133.125 107.32 134.203 106.242 135.016C105.172 135.828 103.758 136.234 102 136.234C100.797 136.234 99.6914 136.02 98.6836 135.59C97.6836 135.16 96.9219 134.559 96.3984 133.785C95.8828 133.012 95.625 132.125 95.625 131.125H97.0664C97.0664 132.328 97.5156 133.277 98.4141 133.973C99.3125 134.668 100.508 135.016 102 135.016C103.328 135.016 104.395 134.723 105.199 134.137C106.004 133.551 106.406 132.773 106.406 131.805ZM120.398 127.82H112.418V134.781H121.594V136H110.977V118.938H121.535V120.168H112.418V126.602H120.398V127.82ZM134.297 131.805C134.297 130.859 133.965 130.113 133.301 129.566C132.637 129.012 131.422 128.488 129.656 127.996C127.891 127.496 126.602 126.953 125.789 126.367C124.633 125.539 124.055 124.453 124.055 123.109C124.055 121.805 124.59 120.746 125.66 119.934C126.738 119.113 128.113 118.703 129.785 118.703C130.918 118.703 131.93 118.922 132.82 119.359C133.719 119.797 134.414 120.406 134.906 121.188C135.398 121.969 135.645 122.84 135.645 123.801H134.191C134.191 122.637 133.793 121.703 132.996 121C132.199 120.289 131.129 119.934 129.785 119.934C128.48 119.934 127.441 120.227 126.668 120.812C125.895 121.391 125.508 122.148 125.508 123.086C125.508 123.953 125.855 124.66 126.551 125.207C127.246 125.754 128.359 126.238 129.891 126.66C131.422 127.074 132.582 127.508 133.371 127.961C134.16 128.406 134.754 128.941 135.152 129.566C135.551 130.191 135.75 130.93 135.75 131.781C135.75 133.125 135.211 134.203 134.133 135.016C133.062 135.828 131.648 136.234 129.891 136.234C128.688 136.234 127.582 136.02 126.574 135.59C125.574 135.16 124.812 134.559 124.289 133.785C123.773 133.012 123.516 132.125 123.516 131.125H124.957C124.957 132.328 125.406 133.277 126.305 133.973C127.203 134.668 128.398 135.016 129.891 135.016C131.219 135.016 132.285 134.723 133.09 134.137C133.895 133.551 134.297 132.773 134.297 131.805Z" fill="black"/>
<defs>
<clipPath id="clip0">
<rect width="98" height="98" fill="white" transform="translate(33)"/>
</clipPath>
</defs>
</svg>
