<svg width="84" height="70" viewBox="0 0 84 70" fill="none" xmlns="http://www.w3.org/2000/svg">
<g clip-path="url(#clip0)">
<path d="M40.9366 69.114C60.0219 69.114 75.4936 53.6423 75.4936 34.557C75.4936 15.4717 60.0219 0 40.9366 0C21.8513 0 6.37964 15.4717 6.37964 34.557C6.37964 53.6423 21.8513 69.114 40.9366 69.114Z" fill="#FCFCFC" fill-opacity="0.2"/>
<path d="M79.2152 53.165H52.633C49.9904 53.165 47.8481 55.3073 47.8481 57.9498C47.8481 60.5924 49.9904 62.7347 52.633 62.7347H79.2152C81.8578 62.7347 84 60.5924 84 57.9498C84 55.3073 81.8578 53.165 79.2152 53.165Z" fill="#FCFCFC" fill-opacity="0.09"/>
<path d="M31.3671 39.3418H4.78481C2.14223 39.3418 0 41.484 0 44.1266C0 46.7692 2.14223 48.9114 4.78481 48.9114H31.3671C34.0097 48.9114 36.1519 46.7692 36.1519 44.1266C36.1519 41.484 34.0097 39.3418 31.3671 39.3418Z" fill="#FCFCFC" fill-opacity="0.09"/>
<path d="M45.1899 10.6328H6.9114C4.26882 10.6328 2.12659 12.775 2.12659 15.4176C2.12659 18.0602 4.26882 20.2024 6.9114 20.2024H45.1899C47.8325 20.2024 49.9747 18.0602 49.9747 15.4176C49.9747 12.775 47.8325 10.6328 45.1899 10.6328Z" fill="#FCFCFC" fill-opacity="0.09"/>
<path d="M42 62.7347C44.6426 62.7347 46.7848 60.5924 46.7848 57.9499C46.7848 55.3073 44.6426 53.165 42 53.165C39.3574 53.165 37.2152 55.3073 37.2152 57.9499C37.2152 60.5924 39.3574 62.7347 42 62.7347Z" fill="#FCFCFC" fill-opacity="0.2"/>
<path d="M77.0886 26.582H50.5064C47.8638 26.582 45.7216 28.7243 45.7216 31.3668C45.7216 34.0094 47.8638 36.1517 50.5064 36.1517H77.0886C79.7312 36.1517 81.8735 34.0094 81.8735 31.3668C81.8735 28.7243 79.7312 26.582 77.0886 26.582Z" fill="#FCFCFC" fill-opacity="0.09"/>
<g filter="url(#filter0_ddd)">
<path d="M55.5218 36.0985C55.2194 35.6953 54.6474 35.6136 54.2441 35.916C54.0504 36.0614 53.9223 36.2776 53.8882 36.5174L53.3817 40.0676C53.3695 40.1133 53.3535 40.1578 53.3342 40.2009C54.265 38.9649 55.0162 37.6034 55.5656 36.157L55.5218 36.0985Z" fill="white"/>
<path d="M52.4772 40.8505C52.4342 40.8505 52.3912 40.8477 52.3486 40.8423L46.9274 40.0674C46.4285 39.9959 46.082 39.5335 46.1535 39.0345C46.1535 39.0344 46.1535 39.0344 46.1535 39.0343L46.66 35.4841C46.7307 34.985 46.3834 34.5232 45.8843 34.4526C45.6455 34.4188 45.403 34.4809 45.2099 34.6253L42.3405 36.7764C41.9372 37.0788 41.3652 36.9972 41.0628 36.5939L37.7773 32.2132C37.4749 31.8099 37.5565 31.2379 37.9598 30.9355L40.8283 28.7844C41.2315 28.482 41.3132 27.91 41.0108 27.5067C40.8654 27.313 40.6491 27.1849 40.4093 27.1508L36.8592 26.6433C36.3602 26.5724 36.0131 26.1102 36.0842 25.6113C36.0842 25.6109 36.0843 25.6106 36.0843 25.6102L36.8592 20.19C36.9301 19.6911 37.3923 19.344 37.8913 19.4151C37.8916 19.4151 37.8919 19.4152 37.8923 19.4152L41.4425 19.9226C41.8076 19.9756 42.1685 19.8019 42.3551 19.4837C42.5489 19.1673 42.5271 18.7641 42.3003 18.4706L40.1511 15.6031C39.8486 15.1998 39.9303 14.6278 40.3336 14.3254L40.8511 13.9375C40.0128 13.897 39.1726 13.9195 38.3376 14.0051C29.3235 15.0343 22.8505 23.1761 23.8798 32.1903C24.4405 37.1009 27.1823 41.498 31.345 44.1624C32.8648 45.1047 33.7982 46.7578 33.8201 48.5459V52.2339C33.8201 53.746 35.0459 54.9718 36.558 54.9718H43.8591C45.3713 54.9718 46.5971 53.746 46.5971 52.2339V48.6216C46.6202 46.7915 47.5728 45.099 49.1251 44.1296C50.5639 43.1962 51.8488 42.0447 52.9336 40.7163C52.796 40.8006 52.6385 40.8469 52.4772 40.8505ZM41.1212 52.2339H39.2959V49.4959H41.1212V52.2339ZM39.2959 47.6706C39.2954 45.2576 37.8074 43.0947 35.5541 42.2313C28.982 39.6615 25.7376 32.2507 28.3074 25.6787C29.3024 23.1339 31.087 20.9751 33.3993 19.5192L34.3676 21.0634C29.2483 24.2847 27.7097 31.046 30.931 36.1654C32.179 38.1488 34.0304 39.6797 36.213 40.5329C39.1709 41.6642 41.1235 44.5038 41.1212 47.6706H39.2959Z" fill="white"/>
<path d="M36.558 59.5352V60.4478C36.558 61.4559 37.3751 62.2731 38.3833 62.2731H42.0338C43.042 62.2731 43.8591 61.4559 43.8591 60.4478V59.5352H36.558Z" fill="white"/>
<path d="M30.852 44.9335C30.3112 44.5829 29.7905 44.2023 29.2923 43.7936C27.9145 46.4756 24.6235 47.5329 21.9415 46.1553C20.116 45.2175 18.9706 43.3352 18.9767 41.2829C18.9809 38.5236 21.0358 36.1978 23.7735 35.8536C23.4386 34.8463 23.1966 33.8103 23.0507 32.7588L22.891 33.5181C22.6836 34.5046 21.7156 35.1361 20.7292 34.9287C20.4929 34.8791 20.2689 34.7831 20.07 34.6462L18.1717 33.3429L16.5089 35.0021L17.8158 36.9022C18.3878 37.7323 18.1786 38.869 17.3485 39.441C17.1494 39.5781 16.9252 39.6744 16.6887 39.7241L14.4135 40.2032V42.3717L16.6887 42.8508C17.6751 43.0586 18.3064 44.0266 18.0987 45.0131C18.0489 45.2499 17.9523 45.4744 17.8149 45.6736L16.5089 47.5637L18.1717 49.2229L20.0682 47.916C20.8982 47.344 22.0349 47.5532 22.6069 48.3833C22.7441 48.5823 22.8403 48.8066 22.8901 49.0431L23.3683 51.322H25.5377L26.0159 49.0468C26.2235 48.0603 27.1915 47.4289 28.1779 47.6365C28.4144 47.6862 28.6387 47.7825 28.8378 47.9196L30.7333 49.2229L32.691 47.2653C32.3628 46.3006 31.7136 45.4775 30.852 44.9335Z" fill="white"/>
<path d="M43.8591 55.8848H36.558V57.7101H43.8591V55.8848Z" fill="white"/>
<path d="M62.9963 24.8463C61.4995 24.6323 60.4595 23.2452 60.6735 21.7484C60.7763 21.0295 61.1604 20.381 61.7414 19.9454L63.8798 18.341L61.6894 15.4206L59.5511 17.0241C58.3416 17.9317 56.6254 17.6869 55.7179 16.4775C55.2827 15.8975 55.0952 15.1684 55.1969 14.4504L55.5747 11.8037L51.9616 11.2881L51.5837 13.9348C51.3696 15.4316 49.9826 16.4716 48.4858 16.2576C47.7669 16.1548 47.1184 15.7707 46.6828 15.1897L45.0784 13.0477L42.1579 15.238L43.7615 17.3763C44.6689 18.5859 44.4239 20.3021 43.2143 21.2096C42.6331 21.6456 41.9025 21.8327 41.1832 21.7297L38.5366 21.3518L38.0182 24.9659L40.6649 25.3437C42.1617 25.5579 43.2017 26.9448 42.9876 28.4417C42.8849 29.1605 42.5008 29.8091 41.9197 30.2446L39.7823 31.849L41.9727 34.7695L44.111 33.166C45.3206 32.2586 47.0367 32.5035 47.9442 33.7131C48.3802 34.2944 48.5673 35.025 48.4643 35.7442L48.0865 38.3909L51.7078 38.9093L52.0857 36.2626C52.2998 34.7657 53.6868 33.7258 55.1836 33.9398C55.9025 34.0426 56.551 34.4267 56.9866 35.0077L58.591 37.1451L61.5115 34.9548L59.9025 32.8128C58.9954 31.603 59.2408 29.8869 60.4506 28.9798C61.0306 28.5449 61.7594 28.3578 62.477 28.4595L65.124 28.8373L65.639 25.2242L62.9963 24.8463ZM51.832 30.5713C48.8077 30.5713 46.3561 28.1198 46.3561 25.0955C46.3561 22.0712 48.8077 19.6196 51.832 19.6196C54.8562 19.6196 57.3078 22.0712 57.3078 25.0955C57.3043 28.1183 54.8547 30.5678 51.832 30.5713Z" fill="white"/>
<path d="M63.9373 43.1074H57.5488V44.9327H63.9373V43.1074Z" fill="white"/>
<path d="M57.2204 47.8818L56.052 49.2842L61.5282 53.8467L62.6966 52.4443L57.2204 47.8818Z" fill="white"/>
<path d="M53.8982 50.4092H52.0729V56.7977H53.8982V50.4092Z" fill="white"/>
<path d="M20.8209 23.0566L13.5203 24.8816L13.9627 26.6514L21.2633 24.8264L20.8209 23.0566Z" fill="white"/>
<path d="M16.0966 14.0742L15.0363 15.5587L21.4243 20.1215L22.4846 18.637L16.0966 14.0742Z" fill="white"/>
<path d="M24.6242 9.1123L22.8558 9.5645L24.7224 16.8651L26.4908 16.4129L24.6242 9.1123Z" fill="white"/>
</g>
</g>
<defs>
<filter id="filter0_ddd" x="-35.3911" y="-30.2295" width="149.941" height="158.427" filterUnits="userSpaceOnUse" color-interpolation-filters="sRGB">
<feFlood flood-opacity="0" result="BackgroundImageFix"/>
<feColorMatrix in="SourceAlpha" type="matrix" values="0 0 0 0 0 0 0 0 0 0 0 0 0 0 0 0 0 0 127 0"/>
<feOffset dy="11.6962"/>
<feGaussianBlur stdDeviation="7.97468"/>
<feColorMatrix type="matrix" values="0 0 0 0 1 0 0 0 0 1 0 0 0 0 1 0 0 0 0.2 0"/>
<feBlend mode="normal" in2="BackgroundImageFix" result="effect1_dropShadow"/>
<feColorMatrix in="SourceAlpha" type="matrix" values="0 0 0 0 0 0 0 0 0 0 0 0 0 0 0 0 0 0 127 0"/>
<feOffset dy="9.56962"/>
<feGaussianBlur stdDeviation="24.4557"/>
<feColorMatrix type="matrix" values="0 0 0 0 1 0 0 0 0 1 0 0 0 0 1 0 0 0 0.12 0"/>
<feBlend mode="normal" in2="effect1_dropShadow" result="effect2_dropShadow"/>
<feColorMatrix in="SourceAlpha" type="matrix" values="0 0 0 0 0 0 0 0 0 0 0 0 0 0 0 0 0 0 127 0"/>
<feOffset dy="25.519"/>
<feGaussianBlur stdDeviation="20.2025"/>
<feColorMatrix type="matrix" values="0 0 0 0 1 0 0 0 0 1 0 0 0 0 1 0 0 0 0.14 0"/>
<feBlend mode="normal" in2="effect2_dropShadow" result="effect3_dropShadow"/>
<feBlend mode="normal" in="SourceGraphic" in2="effect3_dropShadow" result="shape"/>
</filter>
<clipPath id="clip0">
<rect width="84" height="69.11" fill="white"/>
</clipPath>
</defs>
</svg>
