<svg width="84" height="70" viewBox="0 0 84 70" fill="none" xmlns="http://www.w3.org/2000/svg">
<g clip-path="url(#clip0)">
<path d="M40.9366 69.114C60.0219 69.114 75.4936 53.6423 75.4936 34.557C75.4936 15.4717 60.0219 0 40.9366 0C21.8513 0 6.37964 15.4717 6.37964 34.557C6.37964 53.6423 21.8513 69.114 40.9366 69.114Z" fill="#FCFCFC" fill-opacity="0.2"/>
<path d="M79.2152 53.165H52.633C49.9904 53.165 47.8481 55.3073 47.8481 57.9498C47.8481 60.5924 49.9904 62.7347 52.633 62.7347H79.2152C81.8578 62.7347 84 60.5924 84 57.9498C84 55.3073 81.8578 53.165 79.2152 53.165Z" fill="#FCFCFC" fill-opacity="0.09"/>
<path d="M31.3671 39.3418H4.78481C2.14223 39.3418 0 41.484 0 44.1266C0 46.7692 2.14223 48.9114 4.78481 48.9114H31.3671C34.0097 48.9114 36.1519 46.7692 36.1519 44.1266C36.1519 41.484 34.0097 39.3418 31.3671 39.3418Z" fill="#FCFCFC" fill-opacity="0.09"/>
<path d="M45.1898 10.6328H6.91127C4.2687 10.6328 2.12646 12.775 2.12646 15.4176C2.12646 18.0602 4.2687 20.2024 6.91127 20.2024H45.1898C47.8323 20.2024 49.9746 18.0602 49.9746 15.4176C49.9746 12.775 47.8323 10.6328 45.1898 10.6328Z" fill="#FCFCFC" fill-opacity="0.09"/>
<path d="M41.9999 62.7347C44.6425 62.7347 46.7847 60.5924 46.7847 57.9499C46.7847 55.3073 44.6425 53.165 41.9999 53.165C39.3573 53.165 37.2151 55.3073 37.2151 57.9499C37.2151 60.5924 39.3573 62.7347 41.9999 62.7347Z" fill="#FCFCFC" fill-opacity="0.2"/>
<path d="M77.0885 26.582H50.5062C47.8637 26.582 45.7214 28.7243 45.7214 31.3668C45.7214 34.0094 47.8637 36.1517 50.5062 36.1517H77.0885C79.7311 36.1517 81.8733 34.0094 81.8733 31.3668C81.8733 28.7243 79.7311 26.582 77.0885 26.582Z" fill="#FCFCFC" fill-opacity="0.09"/>
<g filter="url(#filter0_ddd)">
<path d="M50.755 51.6486C50.3553 52.2137 49.7701 52.6241 49.1027 52.8084L45.7838 53.7149C45.5233 53.7887 45.2544 53.8267 44.9832 53.8267C44.3717 53.8267 43.7805 53.64 43.2821 53.289C42.5505 52.7799 42.0913 51.9769 42.0187 51.1073L41.7273 47.6802C41.6583 46.9771 41.8474 46.2729 42.2471 45.7066L42.3697 45.5306H30.531C29.5757 45.5306 28.8013 44.7431 28.8013 43.7902C28.8013 42.8338 29.5757 42.0463 30.531 42.0463H44.8607L48.063 37.4724H30.531C29.5757 37.4724 28.8013 36.6849 28.8013 35.7296C28.8013 34.7744 29.5757 33.9869 30.531 33.9869L50.529 33.9357L58.0281 23.1831V15.2213C58.0281 13.9127 57.0158 12.8564 55.7108 12.8564H49.9699V17.3994C49.9699 19.5442 48.2165 21.2405 46.0752 21.2405H34.5291C32.3831 21.2405 30.6904 19.543 30.6904 17.3994V12.8564H24.8876C23.5802 12.8564 22.5227 13.9139 22.5227 15.2213V55.849C22.5227 57.1576 23.5814 58.2722 24.8876 58.2722H55.7084C57.017 58.2722 58.0269 57.1564 58.0269 55.849V41.3219L50.755 51.6486ZM30.531 25.9263H50.0686C51.0215 25.9263 51.7971 26.7126 51.7971 27.6678C51.7971 28.6231 51.0215 29.4106 50.0686 29.4106H30.531C29.5757 29.4106 28.8013 28.6231 28.8013 27.6678C28.8013 26.7126 29.5757 25.9263 30.531 25.9263Z" fill="white"/>
<path d="M34.5614 18.9553H46.0967C46.9699 18.9553 47.6801 18.2463 47.6801 17.3707V10.7365C47.6801 9.86088 46.9699 9.15188 46.0967 9.15188H44.3587C44.3469 6.92148 42.5339 5.11328 40.2987 5.11328C38.0623 5.11328 36.2518 6.92028 36.2387 9.15188H34.5614C33.6858 9.15188 32.978 9.86088 32.978 10.7365V17.3696C32.978 18.2451 33.6858 18.9553 34.5614 18.9553ZM40.2999 7.36278C41.2932 7.36278 42.0985 8.16218 42.1093 9.15308H38.487C38.4989 8.16218 39.3054 7.36278 40.2999 7.36278Z" fill="white"/>
<path d="M72.6206 15.793C72.5671 15.498 72.3993 15.2398 72.1543 15.0685L69.266 13.0558C69.0709 12.919 68.846 12.8535 68.6248 12.8535C68.2727 12.8535 67.9217 13.0201 67.7064 13.3329L47.2468 42.6716L51.973 45.9679L72.435 16.6305C72.6039 16.3866 72.6717 16.0856 72.6206 15.793Z" fill="white"/>
<path d="M44.0244 47.4627L44.3206 50.9077C44.3348 51.1064 44.4407 51.2836 44.6013 51.3978C44.7155 51.4763 44.8499 51.5215 44.9832 51.5215C45.0414 51.5215 45.1009 51.5132 45.158 51.4965L48.4948 50.5829C48.6459 50.5413 48.7767 50.4485 48.8671 50.3212L50.1198 48.525L45.39 45.2275L44.1374 47.0237C44.0493 47.151 44.0077 47.3068 44.0244 47.4627Z" fill="white"/>
</g>
</g>
<defs>
<filter id="filter0_ddd" x="-26.3887" y="-34.2285" width="147.937" height="158.425" filterUnits="userSpaceOnUse" color-interpolation-filters="sRGB">
<feFlood flood-opacity="0" result="BackgroundImageFix"/>
<feColorMatrix in="SourceAlpha" type="matrix" values="0 0 0 0 0 0 0 0 0 0 0 0 0 0 0 0 0 0 127 0"/>
<feOffset dy="11.6962"/>
<feGaussianBlur stdDeviation="7.97468"/>
<feColorMatrix type="matrix" values="0 0 0 0 1 0 0 0 0 1 0 0 0 0 1 0 0 0 0.2 0"/>
<feBlend mode="normal" in2="BackgroundImageFix" result="effect1_dropShadow"/>
<feColorMatrix in="SourceAlpha" type="matrix" values="0 0 0 0 0 0 0 0 0 0 0 0 0 0 0 0 0 0 127 0"/>
<feOffset dy="9.56962"/>
<feGaussianBlur stdDeviation="24.4557"/>
<feColorMatrix type="matrix" values="0 0 0 0 1 0 0 0 0 1 0 0 0 0 1 0 0 0 0.12 0"/>
<feBlend mode="normal" in2="effect1_dropShadow" result="effect2_dropShadow"/>
<feColorMatrix in="SourceAlpha" type="matrix" values="0 0 0 0 0 0 0 0 0 0 0 0 0 0 0 0 0 0 127 0"/>
<feOffset dy="25.519"/>
<feGaussianBlur stdDeviation="20.2025"/>
<feColorMatrix type="matrix" values="0 0 0 0 1 0 0 0 0 1 0 0 0 0 1 0 0 0 0.14 0"/>
<feBlend mode="normal" in2="effect2_dropShadow" result="effect3_dropShadow"/>
<feBlend mode="normal" in="SourceGraphic" in2="effect3_dropShadow" result="shape"/>
</filter>
<clipPath id="clip0">
<rect width="84" height="69.11" fill="white"/>
</clipPath>
</defs>
</svg>
