<svg width="84" height="70" viewBox="0 0 84 70" fill="none" xmlns="http://www.w3.org/2000/svg">
<g clip-path="url(#clip0)">
<path d="M40.9366 69.114C60.0219 69.114 75.4936 53.6423 75.4936 34.557C75.4936 15.4717 60.0219 0 40.9366 0C21.8513 0 6.37964 15.4717 6.37964 34.557C6.37964 53.6423 21.8513 69.114 40.9366 69.114Z" fill="#FCFCFC" fill-opacity="0.2"/>
<path d="M79.2152 53.165H52.633C49.9904 53.165 47.8481 55.3073 47.8481 57.9498C47.8481 60.5924 49.9904 62.7347 52.633 62.7347H79.2152C81.8578 62.7347 84 60.5924 84 57.9498C84 55.3073 81.8578 53.165 79.2152 53.165Z" fill="#FCFCFC" fill-opacity="0.09"/>
<path d="M31.3671 39.3418H4.78481C2.14223 39.3418 0 41.484 0 44.1266C0 46.7692 2.14223 48.9114 4.78481 48.9114H31.3671C34.0097 48.9114 36.1519 46.7692 36.1519 44.1266C36.1519 41.484 34.0097 39.3418 31.3671 39.3418Z" fill="#FCFCFC" fill-opacity="0.09"/>
<path d="M45.1899 10.6328H6.9114C4.26882 10.6328 2.12659 12.775 2.12659 15.4176C2.12659 18.0602 4.26882 20.2024 6.9114 20.2024H45.1899C47.8325 20.2024 49.9747 18.0602 49.9747 15.4176C49.9747 12.775 47.8325 10.6328 45.1899 10.6328Z" fill="#FCFCFC" fill-opacity="0.09"/>
<path d="M42 62.7347C44.6426 62.7347 46.7848 60.5924 46.7848 57.9499C46.7848 55.3073 44.6426 53.165 42 53.165C39.3574 53.165 37.2152 55.3073 37.2152 57.9499C37.2152 60.5924 39.3574 62.7347 42 62.7347Z" fill="#FCFCFC" fill-opacity="0.2"/>
<path d="M77.0886 26.582H50.5064C47.8638 26.582 45.7216 28.7243 45.7216 31.3668C45.7216 34.0094 47.8638 36.1517 50.5064 36.1517H77.0886C79.7312 36.1517 81.8735 34.0094 81.8735 31.3668C81.8735 28.7243 79.7312 26.582 77.0886 26.582Z" fill="#FCFCFC" fill-opacity="0.09"/>
<g filter="url(#filter0_ddd)">
<path d="M17.3004 51.3949H29.6171L37.7974 55.4812C38.1167 55.6407 38.4685 55.7239 38.8253 55.7239H63.0423C64.3131 55.7239 65.3429 54.6938 65.3429 53.4233V48.2128H65.8594C66.469 48.2128 67.055 47.9702 67.486 47.5389C67.918 47.1073 68.16 46.5218 68.16 45.9117L68.156 23.3743C68.155 22.1038 67.126 21.0741 65.8551 21.0741H48.1307L50.8242 10.5322C50.9999 9.84391 50.8478 9.11271 50.4122 8.55161C49.9763 7.99061 49.3058 7.66211 48.5951 7.66211H37.9222C36.8711 7.66211 35.9539 8.37431 35.6935 9.39271L32.7074 21.067L17.2995 21.0741C16.029 21.0747 14.9999 22.1044 14.9999 23.3746V49.0944C14.9999 50.3649 16.0299 51.3949 17.3004 51.3949ZM19.6009 25.6745L34.4948 25.6678C35.5457 25.6675 36.4622 24.9552 36.7226 23.9372L39.7087 12.2634H45.6333L42.9398 22.8053C42.7641 23.4936 42.9162 24.2246 43.3518 24.7859C43.7876 25.3472 44.4582 25.6754 45.1689 25.6754H63.5549L63.5555 28.5811H52.9553C51.6848 28.5811 50.6548 29.6112 50.6548 30.8817C50.6548 32.1522 51.6848 33.1822 52.9553 33.1822H63.5564L63.557 36.0971H52.9553C51.6848 36.0971 50.6548 37.1271 50.6548 38.3976C50.6548 39.6681 51.6848 40.6981 52.9553 40.6981H63.558L63.5586 43.6118H52.9514C51.6806 43.6118 50.6508 44.6418 50.6508 45.9123C50.6508 47.1828 51.6806 48.2128 52.9514 48.2128H60.7418V51.1228H39.3679L31.1879 47.0365C30.8686 46.877 30.5167 46.7939 30.1597 46.7939H19.6006V25.6745H19.6009Z" fill="#FCFCFC"/>
</g>
</g>
<defs>
<filter id="filter0_ddd" x="-33.9115" y="-31.6797" width="150.983" height="153.328" filterUnits="userSpaceOnUse" color-interpolation-filters="sRGB">
<feFlood flood-opacity="0" result="BackgroundImageFix"/>
<feColorMatrix in="SourceAlpha" type="matrix" values="0 0 0 0 0 0 0 0 0 0 0 0 0 0 0 0 0 0 127 0"/>
<feOffset dy="11.6962"/>
<feGaussianBlur stdDeviation="7.97468"/>
<feColorMatrix type="matrix" values="0 0 0 0 1 0 0 0 0 1 0 0 0 0 1 0 0 0 0.2 0"/>
<feBlend mode="normal" in2="BackgroundImageFix" result="effect1_dropShadow"/>
<feColorMatrix in="SourceAlpha" type="matrix" values="0 0 0 0 0 0 0 0 0 0 0 0 0 0 0 0 0 0 127 0"/>
<feOffset dy="9.56962"/>
<feGaussianBlur stdDeviation="24.4557"/>
<feColorMatrix type="matrix" values="0 0 0 0 1 0 0 0 0 1 0 0 0 0 1 0 0 0 0.12 0"/>
<feBlend mode="normal" in2="effect1_dropShadow" result="effect2_dropShadow"/>
<feColorMatrix in="SourceAlpha" type="matrix" values="0 0 0 0 0 0 0 0 0 0 0 0 0 0 0 0 0 0 127 0"/>
<feOffset dy="25.519"/>
<feGaussianBlur stdDeviation="20.2025"/>
<feColorMatrix type="matrix" values="0 0 0 0 1 0 0 0 0 1 0 0 0 0 1 0 0 0 0.14 0"/>
<feBlend mode="normal" in2="effect2_dropShadow" result="effect3_dropShadow"/>
<feBlend mode="normal" in="SourceGraphic" in2="effect3_dropShadow" result="shape"/>
</filter>
<clipPath id="clip0">
<rect width="84" height="69.11" fill="white"/>
</clipPath>
</defs>
</svg>
