<svg width="84" height="70" viewBox="0 0 84 70" fill="none" xmlns="http://www.w3.org/2000/svg">
<g clip-path="url(#clip0)">
<path d="M40.9367 69.114C60.022 69.114 75.4937 53.6423 75.4937 34.557C75.4937 15.4717 60.022 0 40.9367 0C21.8514 0 6.37964 15.4717 6.37964 34.557C6.37964 53.6423 21.8514 69.114 40.9367 69.114Z" fill="#FCFCFC" fill-opacity="0.2"/>
<path d="M78.9607 53.165H52.8874C50.1043 53.165 47.8481 55.3073 47.8481 57.9498C47.8481 60.5924 50.1043 62.7347 52.8874 62.7347H78.9607C81.7438 62.7347 84 60.5924 84 57.9498C84 55.3073 81.7438 53.165 78.9607 53.165Z" fill="#FCFCFC" fill-opacity="0.09"/>
<path d="M31.1126 39.3418H5.03932C2.25618 39.3418 0 41.484 0 44.1266C0 46.7692 2.25618 48.9114 5.03932 48.9114H31.1126C33.8957 48.9114 36.1519 46.7692 36.1519 44.1266C36.1519 41.484 33.8957 39.3418 31.1126 39.3418Z" fill="#FCFCFC" fill-opacity="0.09"/>
<path d="M44.9353 10.6328H7.16583C4.38268 10.6328 2.1265 12.775 2.1265 15.4176C2.1265 18.0602 4.38268 20.2024 7.16583 20.2024H44.9353C47.7184 20.2024 49.9746 18.0602 49.9746 15.4176C49.9746 12.775 47.7184 10.6328 44.9353 10.6328Z" fill="#FCFCFC" fill-opacity="0.09"/>
<path d="M42.0001 62.7347C44.6427 62.7347 46.7849 60.5924 46.7849 57.9499C46.7849 55.3073 44.6427 53.165 42.0001 53.165C39.3575 53.165 37.2153 55.3073 37.2153 57.9499C37.2153 60.5924 39.3575 62.7347 42.0001 62.7347Z" fill="#FCFCFC" fill-opacity="0.2"/>
<path d="M76.834 26.582H50.7608C47.9777 26.582 45.7215 28.7243 45.7215 31.3668C45.7215 34.0094 47.9777 36.1517 50.7608 36.1517H76.834C79.6172 36.1517 81.8734 34.0094 81.8734 31.3668C81.8734 28.7243 79.6172 26.582 76.834 26.582Z" fill="#FCFCFC" fill-opacity="0.09"/>
<g filter="url(#filter0_ddd)">
<path d="M64.8596 16.9921H52.5429L44.3626 12.9057C44.0433 12.7462 43.6915 12.6631 43.3347 12.6631H19.1177C17.8468 12.6631 16.8171 13.6931 16.8171 14.9636V20.1741H16.3006C15.6905 20.1741 15.1049 20.4168 14.6736 20.848C14.2424 21.2796 14.0001 21.8652 14.0001 22.4753L14.0043 45.0126C14.0046 46.2831 15.0343 47.3129 16.3049 47.3129H34.0293L31.3359 57.8547C31.1601 58.543 31.3122 59.2743 31.7478 59.8353C32.1837 60.3963 32.8542 60.7249 33.5648 60.7249H44.2378C45.289 60.7249 46.2061 60.0126 46.4664 58.9943L49.4526 47.3199L64.8605 47.3129C66.131 47.3122 67.1596 46.2825 67.1596 45.0123V19.2926C67.1596 18.0221 66.1301 16.9921 64.8596 16.9921ZM62.559 42.7124L47.6652 42.7192C46.6143 42.7195 45.6978 43.4317 45.4374 44.4498L42.4514 56.1235H36.5267L39.2202 45.5816C39.396 44.8933 39.2438 44.1624 38.8083 43.6011C38.3724 43.0397 37.7018 42.7115 36.9911 42.7115H18.6051L18.6045 39.8058H29.2046C30.4751 39.8058 31.5051 38.7758 31.5051 37.5053C31.5051 36.2348 30.4751 35.2048 29.2046 35.2048H18.6035L18.603 32.2899H29.2046C30.4751 32.2899 31.5051 31.2599 31.5051 29.9894C31.5051 28.7189 30.4751 27.6888 29.2046 27.6888H18.602L18.6014 24.7752H29.2086C30.4794 24.7752 31.5091 23.7451 31.5091 22.4746C31.5091 21.2042 30.4794 20.1741 29.2086 20.1741H21.4182V17.2641H42.7921L50.9721 21.3505C51.2914 21.51 51.6433 21.5931 52.0003 21.5931H62.5593V42.7124H62.559Z" fill="#FCFCFC"/>
</g>
</g>
<defs>
<filter id="filter0_ddd" x="-34.9113" y="-26.6787" width="150.982" height="153.328" filterUnits="userSpaceOnUse" color-interpolation-filters="sRGB">
<feFlood flood-opacity="0" result="BackgroundImageFix"/>
<feColorMatrix in="SourceAlpha" type="matrix" values="0 0 0 0 0 0 0 0 0 0 0 0 0 0 0 0 0 0 127 0"/>
<feOffset dy="11.6962"/>
<feGaussianBlur stdDeviation="7.97468"/>
<feColorMatrix type="matrix" values="0 0 0 0 1 0 0 0 0 1 0 0 0 0 1 0 0 0 0.2 0"/>
<feBlend mode="normal" in2="BackgroundImageFix" result="effect1_dropShadow"/>
<feColorMatrix in="SourceAlpha" type="matrix" values="0 0 0 0 0 0 0 0 0 0 0 0 0 0 0 0 0 0 127 0"/>
<feOffset dy="9.56962"/>
<feGaussianBlur stdDeviation="24.4557"/>
<feColorMatrix type="matrix" values="0 0 0 0 1 0 0 0 0 1 0 0 0 0 1 0 0 0 0.12 0"/>
<feBlend mode="normal" in2="effect1_dropShadow" result="effect2_dropShadow"/>
<feColorMatrix in="SourceAlpha" type="matrix" values="0 0 0 0 0 0 0 0 0 0 0 0 0 0 0 0 0 0 127 0"/>
<feOffset dy="25.519"/>
<feGaussianBlur stdDeviation="20.2025"/>
<feColorMatrix type="matrix" values="0 0 0 0 1 0 0 0 0 1 0 0 0 0 1 0 0 0 0.14 0"/>
<feBlend mode="normal" in2="effect2_dropShadow" result="effect3_dropShadow"/>
<feBlend mode="normal" in="SourceGraphic" in2="effect3_dropShadow" result="shape"/>
</filter>
<clipPath id="clip0">
<rect width="84" height="69.11" fill="white"/>
</clipPath>
</defs>
</svg>
