<svg width="84" height="84" viewBox="0 0 84 84" fill="none" xmlns="http://www.w3.org/2000/svg">
<g clip-path="url(#clip0)">
<path d="M54.9789 68.8625C55.8946 69.2415 56.9501 68.9917 57.5981 68.2432L58.1182 67.642C56.0815 66.1613 53.8619 64.4243 51.4073 62.3004C51.2338 62.1503 51.1435 61.9894 50.9825 61.8378L47.6364 65.7054C51.5803 67.5277 54.2599 68.5628 54.9789 68.8625Z" fill="black" fill-opacity="0.1"/>
<path d="M63.4372 48.3933C65.8982 50.5221 67.9399 52.4628 69.699 54.2541L70.4034 53.4398C71.0569 52.6843 71.1484 51.5938 70.6281 50.7403C69.9302 49.5971 68.9163 47.7933 66.4216 43.9889L62.9182 48.0389C63.092 48.1764 63.2637 48.2426 63.4372 48.3933Z" fill="black" fill-opacity="0.1"/>
<path d="M51.7824 50.4656C50.2455 52.2422 52.0681 56.7938 54.4146 58.8241C62.2663 65.616 67.6967 68.5471 70.8692 69.81C71.7782 70.1721 72.8167 69.9187 73.4569 69.1786C74.0988 68.4372 74.1981 67.3714 73.7088 66.5234C72.037 63.6323 68.3746 58.7427 60.43 51.87C57.8481 49.6377 53.2433 48.7773 51.784 50.4637L51.7824 50.4656Z" fill="black" fill-opacity="0.1"/>
<path d="M35.6683 74.5504L42.6218 80.5653C43.408 81.2453 44.5538 81.3137 45.4153 80.7292C46.2658 80.1581 46.6409 79.0639 46.2973 78.0733C45.104 74.6369 44.4838 71.582 44.8661 69.4671C39.4003 66.8932 34.336 64.0688 29.701 61.0248C28.5952 63.0595 29.7546 69.4349 35.6683 74.5504Z" fill="black" fill-opacity="0.1"/>
<path d="M80.8608 39.4653C81.2435 38.5499 80.9935 37.4932 80.2432 36.8447L73.2897 30.8293C67.9049 26.1724 61.3621 25.7578 59.3903 27.0455C63.4361 31.6763 66.9122 36.4124 69.8568 40.8528C71.6373 40.4029 73.4025 40.4888 78.5676 40.8741C79.5675 40.95 80.4875 40.3697 80.8608 39.4653Z" fill="black" fill-opacity="0.1"/>
<path d="M25.3667 36.7361C28.2426 39.2232 32.6049 38.9075 35.0927 36.0322C37.5803 33.1563 37.2646 28.7933 34.3887 26.3056C31.5128 23.818 27.1504 24.1337 24.6627 27.0096C22.1751 29.8855 22.4908 34.2484 25.3667 36.7361Z" fill="black" fill-opacity="0.1"/>
<path d="M2.24609 5.63625C1.11833 5.8007 0.287541 6.76824 0.284561 7.90452C0.268193 13.5656 1.36664 19.1239 3.44571 24.4995C7.19247 23.8124 11.1382 21.5632 14.2318 17.9869C17.3618 14.3677 19.0108 10.0282 19.098 6.15758C13.8022 5.05252 8.19435 4.75263 2.24609 5.63625Z" fill="black" fill-opacity="0.1"/>
<path d="M17.7089 20.9945C14.1701 25.0855 9.76315 27.7462 5.36233 28.8161C12.0047 42.174 25.288 54.4601 43.3623 63.6202L48.1615 58.072C46.4705 54.641 45.7808 50.3771 48.305 47.4584C50.8337 44.5357 55.1512 44.6115 58.7851 45.7906L63.7422 40.06C54.7461 27.3148 40.9695 12.7154 23.6568 7.33628C23.2975 11.9498 21.3053 16.8369 17.7089 20.9945ZM37.3961 22.8295C42.1881 26.9748 42.7145 34.247 38.5693 39.0397C34.4235 43.8324 27.1507 44.3587 22.3586 40.2129C17.5665 36.0671 17.0401 28.7949 21.1854 24.0028C25.3311 19.2101 32.6034 18.6838 37.3961 22.8295Z" fill="black" fill-opacity="0.1"/>
</g>
<defs>
<clipPath id="clip0">
<rect width="78.4564" height="78.4564" fill="white" transform="translate(5.66357 83.915) rotate(-94.1396)"/>
</clipPath>
</defs>
</svg>
